<?xml version="1.0" standalone="no"?><!DOCTYPE svg PUBLIC "-//W3C//DTD SVG 1.1//EN" "http://www.w3.org/Graphics/SVG/1.1/DTD/svg11.dtd"><svg t="1542695717787" class="icon" style="" viewBox="0 0 1024 1024" version="1.1" xmlns="http://www.w3.org/2000/svg" p-id="3996" xmlns:xlink="http://www.w3.org/1999/xlink" width="200" height="200"><defs><style type="text/css"></style></defs><path d="M56.888889 512c0 251.363556 203.747556 455.111111 455.111111 455.111111s455.111111-203.747556 455.111111-455.111111S763.363556 56.888889 512 56.888889 56.888889 260.636444 56.888889 512z m324.664889-28.444444H711.111111a28.444444 28.444444 0 0 1 0 56.888888H381.553778l150.556444 150.556445a28.444444 28.444444 0 0 1-40.220444 40.220444l-199.111111-199.111111a28.444444 28.444444 0 0 1 0-40.220444l199.111111-199.111111a28.444444 28.444444 0 0 1 40.220444 40.220444L381.553778 483.555556z" p-id="3997" fill="#666666"></path></svg>