<?xml version="1.0" standalone="no"?><!DOCTYPE svg PUBLIC "-//W3C//DTD SVG 1.1//EN" "http://www.w3.org/Graphics/SVG/1.1/DTD/svg11.dtd"><svg t="1540341909388" class="icon" style="" viewBox="0 0 1024 1024" version="1.1" xmlns="http://www.w3.org/2000/svg" p-id="1602" fill="#086aff" xmlns:xlink="http://www.w3.org/1999/xlink" width="200" height="200"><defs><style type="text/css"></style></defs><path d="M527.911305 527.911305c-26.490173 0-47.991937-21.501764-47.991937-47.991937l0-63.989249c0-26.490173 21.501764-47.991937 47.991937-47.991937 26.490173 0 47.991937 21.501764 47.991937 47.991937L575.903242 479.919368C575.903242 506.581556 554.401478 527.911305 527.911305 527.911305z" p-id="1603"></path><path d="M719.018982 527.911305c-26.490173 0-47.991937-21.501764-47.991937-47.991937l0-63.989249c0-26.490173 21.501764-47.991937 47.991937-47.991937s47.991937 21.501764 47.991937 47.991937L767.010919 479.919368C767.010919 506.581556 745.509155 527.911305 719.018982 527.911305z" p-id="1604"></path><path d="M511.913993 67.601545c-81.19066 0-159.45708 21.673778-228.434739 62.78515-38.531161-42.315471-94.435747-66.225433-158.252982-66.225433-11.69696 0-22.361834 6.364522-28.0383 16.513355-5.676466 10.148833-5.332437 22.705863 0.860071 32.510667 0.344028 0.516042 33.542752 54.356459 41.971443 136.751218 1.720141 16.513355 15.653284 28.726356 31.82261 28.726356 1.032085 0 2.064169 0 3.268268-0.172014 17.545439-1.720141 30.446498-17.545439 28.554342-35.090879-4.300353-43.003528-14.449185-79.298505-24.426004-106.820763 24.426004 8.256677 50.916177 23.909961 70.181757 53.324374 0.172014 0.172014 0.172014 0.172014 0.344028 0.344028 0.172014 0.172014 0.172014 0.172014 0.172014 0.344028 1.204099 1.720141 2.752226 2.580212 4.128339 3.956325 1.548127 1.548127 2.92424 3.268268 4.644381 4.472367 1.892155 1.204099 3.956325 1.720141 5.84848 2.580212 1.892155 0.688056 3.440282 1.720141 5.332437 2.064169 2.064169 0.344028 4.128339 0.172014 6.192508 0.172014 2.064169 0 3.956325 0.344028 6.020494 0 2.064169-0.344028 3.78431-1.376113 5.676466-2.236183 1.892155-0.688056 3.956325-1.204099 5.84848-2.236183 0.172014-0.172014 0.172014-0.172014 0.344028-0.344028 0.172014 0 0.344028-0.172014 0.344028-0.172014 64.161263-44.207626 139.33143-67.601545 217.425836-67.601545 211.577356 0 383.763481 172.186125 383.763481 383.763481S723.491349 898.945742 511.913993 898.945742 128.322526 726.759617 128.322526 515.182261c0-54.184445 11.008903-106.476734 32.854695-155.67277 7.224593-16.169326-0.172014-35.090879-16.169326-42.315471-16.169326-7.224593-35.090879 0.172014-42.315471 16.169326-25.458088 57.280699-38.359147 118.345708-38.359147 181.646901 0 246.840249 200.912481 447.75273 447.75273 447.75273S959.666723 762.02251 959.666723 515.182261 758.926256 67.601545 511.913993 67.601545z" p-id="1605" fill="#086aff"></path></svg>
