<?xml version="1.0" standalone="no"?><!DOCTYPE svg PUBLIC "-//W3C//DTD SVG 1.1//EN" "http://www.w3.org/Graphics/SVG/1.1/DTD/svg11.dtd"><svg t="1542698339310" class="icon" style="" viewBox="0 0 1024 1024" version="1.1" xmlns="http://www.w3.org/2000/svg" p-id="4633" xmlns:xlink="http://www.w3.org/1999/xlink" width="200" height="200"><defs><style type="text/css"></style></defs><path d="M512 4.096c-280.576 0-507.904 227.328-507.904 507.904s227.328 507.904 507.904 507.904 507.904-227.328 507.904-507.904-227.328-507.904-507.904-507.904z m235.008 780.288c0 2.048-0.512 3.584-1.024 5.632 0.512 1.536 1.024 3.584 1.024 5.632 0 9.216-7.68 16.896-16.896 16.896h-134.144c-9.216 0-16.896-7.68-16.896-16.896v-162.304h-134.144v162.304c0 9.216-7.68 16.896-16.896 16.896H293.888c-9.216 0-16.896-7.68-16.896-16.896 0-2.048 0.512-3.584 1.024-5.632-0.512-1.536-1.024-3.584-1.024-5.632v-268.288c0-9.216 7.68-16.896 16.896-16.896 9.216 0 16.896 7.68 16.896 16.896v262.656h100.864v-162.304c0-9.216 7.68-16.896 16.896-16.896h167.936c9.216 0 16.896 7.68 16.896 16.896v162.304h100.864v-262.656c0-9.216 7.68-16.896 16.896-16.896 9.216 0 16.896 7.68 16.896 16.896v268.288z m69.632-284.672c-6.656 6.656-17.408 6.656-23.552 0L512 219.136 231.424 499.712c-6.656 6.656-17.408 6.656-23.552 0-6.656-6.656-6.656-17.408 0-23.552l292.352-292.352c6.656-6.656 17.408-6.656 23.552 0l292.352 292.352c6.656 6.656 6.656 17.408 0.512 23.552z" p-id="4634" fill="#666666"></path></svg>