<?xml version="1.0" standalone="no"?><!DOCTYPE svg PUBLIC "-//W3C//DTD SVG 1.1//EN" "http://www.w3.org/Graphics/SVG/1.1/DTD/svg11.dtd"><svg t="1542698901041" class="icon" style="" viewBox="0 0 1064 1024" version="1.1" xmlns="http://www.w3.org/2000/svg" p-id="5318" xmlns:xlink="http://www.w3.org/1999/xlink" width="207.8125" height="200"><defs><style type="text/css"></style></defs><path d="M881.3568 109.4656H514.12992c0-30.4128-10.71104-56.25856-32.13312-77.55776C460.57472 10.6496 434.56512 0 403.94752 0h-73.44128c-30.59712 0-56.60672 10.6496-78.0288 31.92832-21.42208 21.2992-32.13312 47.14496-32.13312 77.55776h-110.1824c-30.6176 0-56.6272 10.6496-78.04928 31.92832C10.71104 162.67264 0 188.53888 0 218.9312v583.82336c0 30.39232 10.71104 56.25856 32.13312 77.53728s47.43168 31.92832 78.04928 31.92832h479.70304c5.36576 0 10.3424-1.14688 14.90944-3.42016 4.608-2.27328 8.8064-5.3248 12.63616-9.09312 6.88128-7.63904 9.74848-16.95744 8.6016-27.9552a279.79776 279.79776 0 0 1-1.72032-29.10208c0-53.22752 14.70464-101.4784 44.15488-144.7936 29.45024-43.33568 69.24288-74.71104 119.35744-94.08512 50.09408-19.39456 102.7072-22.24128 157.77792-8.56064a37.45792 37.45792 0 0 0 32.1536-5.67296c3.80928-3.80928 7.0656-8.15104 9.74848-13.1072 2.70336-4.93568 4.05504-10.4448 4.01408-16.52736V218.9312c0-30.4128-10.71104-56.25856-32.13312-77.55776-21.42208-21.25824-47.45216-31.90784-78.0288-31.90784zM477.40928 729.78432c-60.43648 0-112.27136-21.48352-155.48416-64.43008-43.2128-42.94656-64.8192-94.45376-64.86016-154.48064-0.02048-60.02688 21.6064-111.53408 64.86016-154.50112s95.08864-64.43008 155.48416-64.43008 112.2304 21.46304 155.48416 64.43008c43.25376 42.96704 64.88064 94.47424 64.83968 154.50112-0.02048 60.02688-21.64736 111.55456-64.83968 154.48064-43.2128 42.94656-95.04768 64.43008-155.48416 64.43008z m348.8768-364.89216c-15.31904 0-28.32384-5.3248-39.03488-15.9744s-16.0768-23.59296-16.0768-38.78912c0-15.21664 5.36576-28.13952 16.0768-38.78912s23.71584-15.99488 39.03488-15.99488c15.27808 0 28.30336 5.34528 39.0144 15.99488 10.71104 10.6496 16.0768 23.57248 16.0768 38.78912 0 15.19616-5.36576 28.13952-16.0768 38.78912s-23.73632 15.9744-39.0144 15.9744z m55.07072 294.23616c-50.52416 0-93.73696 17.85856-129.67936 53.59616-35.9424 35.71712-53.92384 78.70464-53.9648 128.83968-0.02048 50.15552 17.98144 93.10208 53.9648 128.83968S830.89408 1024 881.3568 1024c50.44224 0 93.65504-17.85856 129.65888-53.59616 35.98336-35.7376 53.9648-78.68416 53.94432-128.83968-0.02048-50.13504-18.00192-93.12256-53.94432-128.83968-35.9424-35.7376-79.1552-53.59616-129.65888-53.59616z m73.44128 216.63744h-36.74112v36.4544c0 9.89184-3.64544 18.45248-10.89536 25.66144a35.328 35.328 0 0 1-25.8048 10.83392c-9.95328 0-18.55488-3.62496-25.82528-10.83392a34.93888 34.93888 0 0 1-10.91584-25.66144v-36.4544h-36.72064c-9.9328 0-18.5344-3.62496-25.82528-10.8544s-10.89536-15.7696-10.89536-25.66144c0-9.85088 3.62496-18.41152 10.89536-25.64096s15.872-10.83392 25.82528-10.83392h36.72064v-36.4544c0-9.89184 3.64544-18.432 10.91584-25.68192a35.30752 35.30752 0 0 1 25.82528-10.83392c9.91232 0 18.5344 3.62496 25.8048 10.83392 7.24992 7.24992 10.89536 15.79008 10.89536 25.68192v36.4544h36.74112c9.91232 0 18.5344 3.62496 25.82528 10.83392 7.24992 7.22944 10.89536 15.79008 10.89536 25.64096 0 9.89184-3.64544 18.41152-10.89536 25.66144-7.29088 7.22944-15.91296 10.8544-25.82528 10.8544z" p-id="5319" fill="#ffffff"></path></svg>