<?xml version="1.0" standalone="no"?><!DOCTYPE svg PUBLIC "-//W3C//DTD SVG 1.1//EN" "http://www.w3.org/Graphics/SVG/1.1/DTD/svg11.dtd"><svg t="1542702502861" class="icon" style="" viewBox="0 0 1024 1024" version="1.1" xmlns="http://www.w3.org/2000/svg" p-id="950" xmlns:xlink="http://www.w3.org/1999/xlink" width="200" height="200"><defs><style type="text/css"></style></defs><path d="M812.2 355.7L434.3 733.6c-17.4 17.4-45.6 17.4-63 0l-31.5-31.5 409.4-409.4c17.4-17.4 45.6-17.4 63 0s17.4 45.6 0 63z" p-id="951" fill="#0084e7"></path><path d="M371.3 733.6L213.9 576.2c-17.4-17.4-17.4-45.6 0-63s45.6-17.4 63 0l188.9 188.9-31.5 31.5c-17.4 17.4-45.6 17.4-63 0z" p-id="952" fill="#0084e7"></path><path d="M928.1 928.2H98v-830h830.1v830zM863.2 163H162.9v700.4h700.4V163z" p-id="953" fill="#0084e7"></path></svg>