<?xml version="1.0" standalone="no"?><!DOCTYPE svg PUBLIC "-//W3C//DTD SVG 1.1//EN" "http://www.w3.org/Graphics/SVG/1.1/DTD/svg11.dtd"><svg t="1542701570948" class="icon" style="" viewBox="0 0 1024 1024" version="1.1" xmlns="http://www.w3.org/2000/svg" p-id="5862" xmlns:xlink="http://www.w3.org/1999/xlink" width="200" height="200"><defs><style type="text/css"></style></defs><path d="M508.532527 414.621159c-68.293409 0-123.827213 55.196113-123.827213 123.056664 0 67.861574 55.533804 123.088386 123.827213 123.088386 68.26271 0 123.82619-55.226812 123.82619-123.088386C632.358717 469.817272 576.795237 414.621159 508.532527 414.621159z" p-id="5863" fill="#ffffff"></path><path d="M934.809143 756.826008c-0.215918 0.584308-0.584308 1.140986-0.89437 1.663896l0-4.807493L933.914774 304.816311c0-28.67611-23.452131-52.005444-52.266387-52.005444l-156.432819 0-1.940189 0-0.89437-1.725294-20.463054-40.679491c-2.341325-5.208629-23.267936-49.710169-51.7752-49.710169L372.28647 160.695912c-29.153994 0-50.633191 47.213301-51.52756 49.232285l-20.709671 41.157375-0.89437 1.725294-1.940189 0-156.463518 0c-28.813233 0-52.267411 23.329335-52.267411 52.005444l0 506.464937c0 28.692482 23.454178 52.021817 52.267411 52.021817l740.898247 0c28.814256 0 52.266387-23.329335 52.266387-52.021817l0-52.236712c0.525979-0.73985 1.139963-1.417279 1.602498-2.218528L934.809143 756.826008zM508.532527 715.714681c-98.680487 0-178.99058-79.881328-178.99058-178.036859 0-98.154507 80.310094-178.004113 178.99058-178.004113 98.679463 0 178.960905 79.849606 178.960905 178.004113C687.493431 635.833353 607.21199 715.714681 508.532527 715.714681zM782.475689 407.333172c-22.960944 0-41.668005-18.706037-41.668005-41.681308 0-23.00597 18.707061-41.697681 41.668005-41.697681 22.989597 0 41.695634 18.691711 41.695634 41.697681C824.171324 388.627135 805.465287 407.333172 782.475689 407.333172z" p-id="5864" fill="#ffffff"></path><path d="M872.802928 755.99406 872.864326 755.99406 872.864326 755.624646Z" p-id="5865" fill="#ffffff"></path></svg>