<?xml version="1.0" standalone="no"?><!DOCTYPE svg PUBLIC "-//W3C//DTD SVG 1.1//EN" "http://www.w3.org/Graphics/SVG/1.1/DTD/svg11.dtd"><svg t="1539139494386" class="icon" style="" viewBox="0 0 1024 1024" version="1.1" xmlns="http://www.w3.org/2000/svg" p-id="47830" xmlns:xlink="http://www.w3.org/1999/xlink" width="200" height="200"><defs><style type="text/css"></style></defs><path d="M512.805342 64.646346c-246.850108 0-446.789813 199.935612-446.789813 446.789813 0 246.850108 199.939705 446.789813 446.789813 446.789813 246.854201 0 446.789813-199.939705 446.789813-446.789813C959.595154 264.581957 759.65852 64.646346 512.805342 64.646346zM546.401508 777.538749l-73.90829 0 0-80.627319 73.90829 0L546.401508 777.538749zM653.899824 421.442518c-13.437034 24.672936-31.387871 45.912679-53.749158 63.828724-22.395056 17.953907-38.109969 35.833113-47.03013 53.752228-8.958022 17.950837-13.441127 30.232558-13.441127 36.950564l0 23.5166-60.467163 0 0-33.593096c0-20.156062 5.037736-39.752376 15.117302-58.790988 10.076496-19.000749 27.399023-39.752376 52.071959-62.148455 17.916045-15.642259 30.232558-31.915897 36.950564-48.710398 6.719028-16.798595 10.079566-33.034371 10.079566-48.710398 0-29.080316-6.719028-50.916647-20.156062-65.508993-13.437034-14.558577-32.474622-21.836331-57.109696-21.836331-24.672936 0-45.352931 9.55461-62.148455 28.555359-16.798595 19.037589-25.197892 49.866734-25.197892 92.38306l-77.265758 0c2.205225-62.673411 19.000749-109.181655 50.39169-139.414213 31.353079-30.235628 69.391417-45.352931 114.219391-45.352931 49.235354 0 87.86721 13.437034 115.89659 40.312124 27.995611 26.874067 41.995463 61.626569 41.995463 104.143918C674.058956 369.932354 667.336858 396.807445 653.899824 421.442518z" p-id="47831" fill="#ffffff" ></path></svg>
