<?xml version="1.0" standalone="no"?><!DOCTYPE svg PUBLIC "-//W3C//DTD SVG 1.1//EN" "http://www.w3.org/Graphics/SVG/1.1/DTD/svg11.dtd"><svg t="1542614011007" class="icon" style="" viewBox="0 0 1024 1024" version="1.1" xmlns="http://www.w3.org/2000/svg" p-id="4317" xmlns:xlink="http://www.w3.org/1999/xlink" width="200" height="200"><defs><style type="text/css"></style></defs><path d="M524.8 92.16c-225.28 0-409.6 161.28-409.6 358.4 0 112.64 58.88 215.04 153.6 279.04v181.76l179.2-110.08c25.6 5.12 51.2 7.68 76.8 7.68 225.28 0 409.6-161.28 409.6-358.4 0-199.68-181.76-358.4-409.6-358.4z m0 665.6c-30.72 0-58.88-2.56-87.04-10.24L317.44 819.2l2.56-117.76c-92.16-56.32-153.6-148.48-153.6-250.88 0-168.96 161.28-307.2 358.4-307.2s358.4 138.24 358.4 307.2-161.28 307.2-358.4 307.2z m128-230.4h-256c-15.36 0-25.6 10.24-25.6 25.6s10.24 25.6 25.6 25.6h256c15.36 0 25.6-10.24 25.6-25.6s-10.24-25.6-25.6-25.6z m51.2-153.6h-358.4c-15.36 0-25.6 10.24-25.6 25.6s10.24 25.6 25.6 25.6h358.4c15.36 0 25.6-10.24 25.6-25.6s-10.24-25.6-25.6-25.6z" fill="#ffffff" p-id="4318"></path></svg>