<?xml version="1.0" standalone="no"?><!DOCTYPE svg PUBLIC "-//W3C//DTD SVG 1.1//EN" "http://www.w3.org/Graphics/SVG/1.1/DTD/svg11.dtd"><svg t="1542260722542" class="icon" style="" viewBox="0 0 1024 1024" version="1.1" xmlns="http://www.w3.org/2000/svg" p-id="24729" xmlns:xlink="http://www.w3.org/1999/xlink" width="200" height="200"><defs><style type="text/css"></style></defs><path d="M611.663 410.099a15.723 15.723 0 0 1 7.112 9.753l29.652 122.651 15.332-3.706-29.652-122.651c-1.897-7.85-6.785-14.977-14.225-19.507-7.429-4.55-16.001-5.641-23.85-3.743l-30.663 7.412 3.706 15.332 30.663-7.412a15.724 15.724 0 0 1 11.925 1.87z m-153.615 16.154l61.326-14.826 3.706 15.332-61.325 14.826-3.707-15.332z m-10.746 338.622a15.723 15.723 0 0 1-7.112-9.753l-66.717-275.967a15.723 15.723 0 0 1 1.872-11.925 15.723 15.723 0 0 1 9.753-7.112l30.663-7.413-3.706-15.332-30.663 7.413c-7.85 1.897-14.977 6.785-19.506 14.225-4.55 7.429-5.642 16.001-3.744 23.85l66.717 275.967c1.898 7.85 6.785 14.977 14.226 19.506 7.428 4.55 16 5.642 23.85 3.744l107.32-25.946-3.706-15.332-107.32 25.946a15.731 15.731 0 0 1-11.927-1.871z m-2.984-294.734a7.89 7.89 0 0 0 5.812-9.52l-11.119-45.994a7.89 7.89 0 0 0-9.519-5.813 7.89 7.89 0 0 0-5.813 9.52l11.12 45.994a7.887 7.887 0 0 0 9.519 5.813z m107.319-25.944a7.89 7.89 0 0 0 5.813-9.52l-11.12-45.995a7.89 7.89 0 0 0-9.519-5.812 7.89 7.89 0 0 0-5.812 9.519l11.119 45.995a7.89 7.89 0 0 0 9.519 5.813z" p-id="24730" fill="#666666"></path><path d="M612.457 494.403a7.89 7.89 0 0 0-9.52-5.813L418.96 533.068a7.89 7.89 0 0 0-5.813 9.519 7.89 7.89 0 0 0 9.519 5.813l183.978-44.478a7.889 7.889 0 0 0 5.813-9.519z m-46.499 76.151a7.89 7.89 0 0 0-9.52-5.813l-122.65 29.652a7.89 7.89 0 0 0-5.813 9.52 7.89 7.89 0 0 0 9.519 5.813l122.651-29.653a7.89 7.89 0 0 0 5.813-9.519zM448.613 655.72c-4.232 1.023-6.835 5.288-5.813 9.52s5.288 6.835 9.52 5.812l61.325-14.825a7.89 7.89 0 0 0 5.813-9.52 7.89 7.89 0 0 0-9.52-5.812l-61.325 14.825z m236.767-41.985a23.55 23.55 0 0 0-11.032-8.449 23.732 23.732 0 0 0-13.778-0.807l-55.913 13.517a23.605 23.605 0 0 0-11.938 7.072 23.483 23.483 0 0 0-5.92 12.563l-4.549 31.462 0.655 2.844-0.522 0.126 3.707 15.332 0.367-0.09 8.898 38.418a23.57 23.57 0 0 0 10.663 14.64c5.391 3.304 11.761 4.28 17.893 2.797l76.658-18.531a23.57 23.57 0 0 0 14.64-10.663c3.304-5.392 4.28-11.762 2.797-17.894l-9.266-38.328-3.707-15.332-0.06-0.246-19.593-28.431z m17.297 86.044a7.878 7.878 0 0 1-0.927 5.968 7.903 7.903 0 0 1-4.886 3.55l-76.658 18.533a7.902 7.902 0 0 1-5.968-0.927 7.87 7.87 0 0 1-3.551-4.886l-9.267-38.328 91.989-22.24 9.268 38.33z m-104.364-31.566l4.084-28.348a7.727 7.727 0 0 1 1.96-4.173 7.93 7.93 0 0 1 3.99-2.36l55.912-13.517a7.906 7.906 0 0 1 4.594 0.269 8.076 8.076 0 0 1 3.685 2.824l16.66 23.333-90.885 21.972z" p-id="24731" fill="#666666"></path><path d="M654.83 703.231l30.662-7.412c4.232-1.023 6.836-5.288 5.813-9.52s-5.288-6.835-9.52-5.812l-30.662 7.412a7.89 7.89 0 0 0-5.813 9.52 7.89 7.89 0 0 0 9.52 5.812z" p-id="24732" fill="#666666"></path><path d="M826.396 706.402a12.904 12.904 0 0 1-12.914-12.93 12.904 12.904 0 0 1 12.914-12.93 12.904 12.904 0 0 1 12.914 12.93 12.904 12.904 0 0 1-12.914 12.93z m0-17.072a4.176 4.176 0 0 0-4.137 4.143c0 2.26 1.88 4.141 4.137 4.141a4.176 4.176 0 0 0 4.137-4.141 4.176 4.176 0 0 0-4.137-4.143z m-29.517-322.118a12.9 12.9 0 0 1-12.914-12.93 12.904 12.904 0 0 1 12.914-12.928 12.902 12.902 0 0 1 12.913 12.929 12.896 12.896 0 0 1-12.913 12.929z m0-17.072a4.178 4.178 0 0 0-4.138 4.143c0 2.26 1.88 4.142 4.138 4.142a4.176 4.176 0 0 0 4.138-4.142 4.176 4.176 0 0 0-4.138-4.143z" p-id="24733" fill="#666666"></path><path d="M586.029 325.661a2.64 2.64 0 0 0 1.276 2.393 2.637 2.637 0 1 0 3.99-2.393v-0.002a2.634 2.634 0 0 0-3.99-2.39 2.633 2.633 0 0 0-1.276 2.392c0-0.002 0 0 0 0zM238.956 663.722a2.634 2.634 0 0 0 3.989 2.393 2.638 2.638 0 0 0 1.278-2.393v-0.002a2.637 2.637 0 1 0-5.267 0.002z m576.156-75.445a2.637 2.637 0 1 0 5.266 0v-0.002a2.637 2.637 0 1 0-5.266 0.002z m-582.3 181.896a2.634 2.634 0 0 0 3.989 2.391 2.63 2.63 0 0 0 1.276-2.391v-0.003a2.636 2.636 0 1 0-5.266 0.003c0-0.003 0 0 0 0z" p-id="24734" fill="#666666"></path><path d="M368.23 384.16c-8.275 0-14.92-6.652-14.92-14.939s6.645-14.938 14.92-14.938 14.92 6.652 14.92 14.938-6.645 14.939-14.92 14.939z m0-21.09a6.157 6.157 0 0 0-6.145 6.151 6.157 6.157 0 0 0 6.145 6.15 6.157 6.157 0 0 0 6.144-6.15 6.157 6.157 0 0 0-6.144-6.15zM183.264 626.555a14.887 14.887 0 0 1-14.921-14.939 14.885 14.885 0 0 1 14.921-14.938 14.884 14.884 0 0 1 14.921 14.938 14.884 14.884 0 0 1-14.92 14.939z m0-21.09a6.157 6.157 0 0 0-6.144 6.151 6.157 6.157 0 0 0 6.144 6.15 6.157 6.157 0 0 0 6.144-6.15 6.157 6.157 0 0 0-6.144-6.152z" p-id="24735" fill="#666666"></path><path d="M244.223 594.804h-17.556c-2.383 0-4.389-2.008-4.389-4.392 0-2.386 2.007-4.393 4.39-4.393h17.555c2.383 0 4.387 2.01 4.387 4.393 0 2.384-2.007 4.392-4.387 4.392z" p-id="24736" fill="#666666"></path><path d="M235.444 603.592c-2.384 0-4.388-2.01-4.388-4.392v-17.575c0-2.385 2.006-4.392 4.388-4.392 2.383 0 4.387 2.008 4.387 4.392V599.2a4.442 4.442 0 0 1-4.387 4.392z" p-id="24737" fill="#666666"></path><path d="M293.248 365.33a3.889 3.889 0 1 0 7.775 0.004v-0.004a3.889 3.889 0 1 0-7.775-0.005v0.005z m423.684 61.134a3.89 3.89 0 1 0 7.774 0.004v-0.001a3.89 3.89 0 0 0-7.774-0.007v0.004z" p-id="24738" fill="#666666"></path><path d="M288.107 408.262h-4.389v-4.392c0-2.386-2.006-4.393-4.388-4.393s-4.389 2.008-4.389 4.393v4.392h-4.387c-2.384 0-4.388 2.008-4.388 4.393s2.006 4.392 4.388 4.392h4.387v4.393c0 2.386 2.007 4.392 4.389 4.392s4.388-2.009 4.388-4.392v-4.393h4.39c2.382 0 4.386-2.01 4.386-4.392 0-2.385-2.004-4.393-4.387-4.393z m504.384 9.916h-4.389v-4.393c0-2.386-2.006-4.392-4.388-4.392-2.38 0-4.387 2.009-4.387 4.392v4.393h-4.39c-2.382 0-4.388 2.01-4.388 4.392 0 2.386 2.007 4.393 4.389 4.393h4.389v4.392c0 2.386 2.006 4.393 4.387 4.393 2.382 0 4.388-2.008 4.388-4.393v-4.392h4.389c2.383 0 4.388-2.008 4.388-4.393 0-2.383-2.006-4.392-4.388-4.392zM220.128 676.15h-4.387v-4.393c0-2.385-2.007-4.392-4.389-4.392s-4.388 2.01-4.388 4.392v4.393h-4.389c-2.383 0-4.387 2.01-4.387 4.392 0 2.386 2.007 4.393 4.387 4.393h4.389v4.393c0 2.385 2.006 4.392 4.388 4.392s4.389-2.008 4.389-4.392v-4.393h4.387c2.385 0 4.389-2.008 4.389-4.393 0-2.383-2.007-4.392-4.389-4.392z" p-id="24739" fill="#666666"></path><path d="M748.406 381.649h-4.389v-4.393c0-2.386-2.007-4.392-4.387-4.392-2.382 0-4.389 2.01-4.389 4.392v4.393h-4.388c-2.383 0-4.388 2.01-4.388 4.392 0 2.386 2.006 4.393 4.388 4.393h4.388v4.392c0 2.386 2.007 4.393 4.389 4.393 2.38 0 4.387-2.008 4.387-4.393v-4.392h4.389c2.384 0 4.388-2.008 4.388-4.393 0-2.383-2.007-4.392-4.388-4.392z" p-id="24740" fill="#666666"></path><path d="M149.104 790.076h-24.535c-2.14 0-3.874-1.734-3.874-3.878s1.734-3.878 3.874-3.878h24.536c2.14 0 3.874 1.734 3.874 3.878s-1.736 3.878-3.875 3.878z m69.963 0h-56.131c-2.14 0-3.874-1.734-3.874-3.878s1.734-3.878 3.874-3.878h56.13c2.14 0 3.875 1.734 3.875 3.878s-1.734 3.878-3.874 3.878z m721.904 0h-24.534c-2.142 0-3.873-1.734-3.873-3.878s1.731-3.878 3.873-3.878h24.534c2.142 0 3.874 1.734 3.874 3.878s-1.732 3.878-3.874 3.878z m-38.366 0h-56.13c-2.143 0-3.875-1.734-3.875-3.878s1.732-3.878 3.874-3.878h56.131c2.143 0 3.874 1.734 3.874 3.878s-1.734 3.878-3.874 3.878z m-72.922 0H236.19c-2.14 0-3.874-1.734-3.874-3.878s1.734-3.878 3.874-3.878h593.493c2.141 0 3.874 1.734 3.874 3.878s-1.733 3.878-3.873 3.878zM331.02 826.929h-24.536c-2.14 0-3.874-1.734-3.874-3.878s1.734-3.878 3.874-3.878h24.536c2.14 0 3.874 1.735 3.874 3.878s-1.734 3.878-3.874 3.878z m166.217 0H352.603c-2.14 0-3.874-1.734-3.874-3.878s1.734-3.878 3.874-3.878h144.633c2.14 0 3.874 1.735 3.874 3.878s-1.734 3.878-3.874 3.878z m261.45 0h-39.398c-2.142 0-3.874-1.734-3.874-3.878s1.732-3.878 3.874-3.878h39.398c2.142 0 3.874 1.735 3.874 3.878s-1.732 3.878-3.874 3.878z m-64.64 0h-168.68c-2.14 0-3.875-1.734-3.875-3.878s1.734-3.878 3.874-3.878h168.68c2.142 0 3.875 1.735 3.875 3.878s-1.733 3.878-3.874 3.878z" p-id="24741" fill="#666666"></path><path d="M416.33 892.872h24.534v7.757H416.33v-7.757z m46.12 0h144.633v7.757H462.45v-7.757z m172.762 0h13.626v7.757h-13.626v-7.757z" p-id="24742" fill="#666666"></path><path d="M846.373 427.878a1.427 1.427 0 0 1-0.517-2.75c29.019-11.326 49.156-32.917 59.433-55.762-2.35-0.433-4.37-1.366-6.048-2.793-8.765-7.455-4.748-26.114 0.09-36.837 1.752-3.883 6.32-12.86 11.287-12.124 2.513 0.365 4.134 3.078 4.815 8.06 1.737 12.701-0.33 27.056-5.987 41.109 6.509-0.278 16.633-3.847 32.377-14.32 46.971-31.24 75.3-66.274 75.783-93.708 0.162-9.33-3.075-16.855-9.119-21.192a1.422 1.422 0 0 1 1.654-2.31c6.828 4.897 10.486 13.262 10.308 23.554-0.242 13.623-8.229 50.25-77.055 96.028-14.835 9.87-26.494 14.82-34.837 14.82l-0.32-0.001c-10.45 23.813-31.24 46.378-61.352 58.133a1.48 1.48 0 0 1-0.512 0.093z m63.684-107.46c-1.677 0-5.022 3.586-8.135 10.49-5.407 11.986-7.54 27.8-0.84 33.5 1.26 1.074 2.994 1.93 5.38 2.256 5.746-13.87 7.872-28.068 6.16-40.604-0.543-3.972-1.601-5.513-2.408-5.63a0.78 0.78 0 0 0-0.157-0.012zM8.054 758.785c-1.57 0-2.516-0.04-2.663-0.049a1.938 1.938 0 0 1-1.846-2.023c0.051-1.071 1.059-2.004 2.022-1.847 0.481-0.004 41.795 1.575 57.46-20.381-7.31 0.716-12.722-2.95-15.464-10.643-4.297-12.041-3.236-22.177 2.836-27.112 3.969-3.22 9.478-3.495 14.054-0.69 2.776 1.706 11.518 8.723 7.488 27.557a36.805 36.805 0 0 1-1.274 4.526c22.843-11.056 55.153-54.582 51.72-71.783a1.939 1.939 0 1 1 3.798-0.758c4.061 20.328-32.583 69.083-57.82 77.691-5.761 10.497-16.983 18.074-33.025 22.177-11.55 2.95-22.416 3.335-27.286 3.335z m49.729-60.813a7.772 7.772 0 0 0-4.938 1.768c-4.74 3.853-5.349 12.375-1.632 22.798 2.508 7.029 7.232 9.496 14.457 7.506a31.757 31.757 0 0 0 2.486-7.26c2.778-12.983-1.136-20.62-5.724-23.437-1.495-0.915-3.095-1.375-4.65-1.375z" p-id="24743" fill="#666666"></path></svg>