<?xml version="1.0" standalone="no"?><!DOCTYPE svg PUBLIC "-//W3C//DTD SVG 1.1//EN" "http://www.w3.org/Graphics/SVG/1.1/DTD/svg11.dtd"><svg t="1540341930400" class="icon" style="" viewBox="0 0 1024 1024" version="1.1" xmlns="http://www.w3.org/2000/svg" p-id="2333" xmlns:xlink="http://www.w3.org/1999/xlink" width="200" height="200"><defs><style type="text/css"></style></defs><path d="M371.510163 833.327734l0 1.209474c-6.551319 0-11.355619 0.503948-14.177726 0.503948l-3.326054 0c-69.813539 0-126.05409-55.837393-128.002688-125.550143-1.075088-34.23484 11.288426-67.360994 34.738787-92.256005 23.450361-24.895011 55.165463-39.475895 89.400302-40.450193 0.335965 0 3.762809-0.201579 4.065177-0.201579 26.810012 0 52.511339 8.399126 74.61784 24.491853 31.009575 10.952461 62.355115-4.367546 92.961532-45.422476 30.472031-40.752562 36.888964-73.0724 19.049219-96.018814-6.34974-4.569125-12.464304-10.011759-18.511675-16.462288-1.075088-1.041492-2.049387-2.150176-2.990089-3.326054-20.023518-22.610449-31.513523-51.234672-32.420628-80.732404-1.948597-70.754242 53.821603-129.884092 124.273476-131.866286 0.335965 0 3.628423-0.067193 3.930791-0.067193 59.264237 0 111.674786 41.995632 124.575844 99.916009 10.414917 32.151856 37.02335 159.51621-90.945742 330.589619C530.354443 816.227112 415.454393 833.327734 371.510163 833.327734L371.510163 833.327734zM367.377793 768.721653c19.116412 0.436755 119.569965-2.250966 229.531329-149.672434 112.313119-150.176382 86.746178-255.501428 80.463632-275.121787-7.156056-31.412733-33.058962-52.20897-62.388712-52.20897-37.02335 1.041492-64.639677 30.404838-63.698975 65.546783 0.571141 18.646061 9.407022 32.252646 16.697463 40.315807 0.235176 0.268772 0.470351 0.537544 0.67193 0.806316 4.065177 4.401142 7.861582 7.6936 11.657988 10.146145 2.385352 1.579036 4.602721 3.46044 6.484126 5.610616 19.788342 22.30808 58.088359 84.528809-13.405006 180.110868-46.161599 61.783974-93.499076 74.718629-125.046195 74.752226-16.227112 0-32.353435-3.326054-47.908618-9.81018-2.68772-1.108685-5.241055-2.620527-7.525617-4.434739-8.029565-6.316143-21.266588-13.875357-38.736771-13.875357-19.150008 0.537544-34.839577 7.59281-46.430371 19.889132-11.624391 12.363514-17.738955 28.523434-17.235008 45.489669 0.974299 34.671594 28.892995 61.750378 63.497396 61.750378 0.167983 0 0.201579 0.033597 0.067193 0.067193 1.209474-0.201579 2.519738-0.369562 3.292458-0.436755C360.759281 767.680161 364.152528 767.948933 367.377793 768.721653L367.377793 768.721653zM515.706367 967.478582c-60.708886 0-119.603561-11.859567-175.071393-35.175542-16.428691-6.954477-24.122291-25.835713-17.201411-42.264405 6.92088-16.462288 25.835713-24.088695 42.264405-17.235008 47.471863 19.956325 97.933815 30.136066 150.008399 30.136066 213.539392 0 387.233328-173.693936 387.233328-387.233328 0-213.505795-173.693936-387.233328-387.233328-387.233328S128.473039 302.200571 128.473039 515.739963c0 73.005207 20.426676 144.095414 59.062657 205.610616 9.440618 15.118428 4.90509 35.007559-10.179741 44.481774-15.084831 9.474215-35.007559 4.938686-44.481774-10.179741-45.153704-71.862926-68.973627-154.812699-68.973627-239.912649 0-249.084495 202.654124-451.772216 451.772216-451.772216s451.772216 202.654124 451.772216 451.772216C967.444986 764.824458 764.790862 967.478582 515.706367 967.478582L515.706367 967.478582z" p-id="2334" fill="#086aff"></path></svg>
