<?xml version="1.0" standalone="no"?><!DOCTYPE svg PUBLIC "-//W3C//DTD SVG 1.1//EN" "http://www.w3.org/Graphics/SVG/1.1/DTD/svg11.dtd"><svg t="1542614650887" class="icon" style="" viewBox="0 0 1024 1024" version="1.1" xmlns="http://www.w3.org/2000/svg" p-id="5084" xmlns:xlink="http://www.w3.org/1999/xlink" width="200" height="200"><defs><style type="text/css"></style></defs><path d="M950.703647 902.493645 730.460524 682.250522c55.009871-66.992787 85.060281-150.322657 85.060281-237.901295 0-207.054753-168.455643-375.515512-375.515512-375.515512S64.488757 237.294474 64.488757 444.349227s168.455643 375.515512 375.515512 375.515512c52.829206 0 103.918791-10.756995 151.857617-31.976272 15.774265-6.985088 22.901593-25.428136 15.916505-41.197284-6.979972-15.789615-25.428136-22.896476-41.202401-15.921621-39.921221 17.670451-82.507132 26.627451-126.57172 26.627451-172.613336 0-313.048809-140.429333-313.048809-313.048809s140.434449-313.048809 313.048809-313.048809 313.048809 140.429333 313.048809 313.048809c0 81.632205-31.243585 158.913313-87.971587 217.588667-11.992125 12.394285-11.656481 32.168654 0.741897 44.165896 0.765433 0.738827 1.63422 1.287319 2.451842 1.933025 0.554632 0.652869 1.00284 1.36509 1.619894 1.981121l236.641605 236.641605c6.094812 6.099928 14.09195 9.150404 22.082948 9.150404 7.990998 0 15.988136-3.050476 22.082948-9.150404C962.904527 934.469917 962.904527 914.684292 950.703647 902.493645z" p-id="5085" fill="#0084e7"></path><path d="M476.911854 557.36828c-0.132006 0.213871-14.34573 20.852934-36.474726 20.852934-21.560038 0-34.857902-19.439748-35.737946-20.761859-9.17087-14.427594-28.285207-18.84009-42.839691-9.770528-14.655791 9.099239-19.150152 28.356838-10.04989 43.007513 11.539824 18.564821 43.185568 49.992601 88.627527 49.992601 45.223994 0 77.270874-31.193443 89.079828-49.626257 9.302877-14.528901 5.068436-33.846876-9.455349-43.149752C505.527588 538.619264 486.21473 542.839379 476.911854 557.36828z" p-id="5086" fill="#0084e7"></path></svg>