<?xml version="1.0" standalone="no"?><!DOCTYPE svg PUBLIC "-//W3C//DTD SVG 1.1//EN" "http://www.w3.org/Graphics/SVG/1.1/DTD/svg11.dtd"><svg t="1537148730909" class="icon" style="" viewBox="0 0 1024 1024" version="1.1" xmlns="http://www.w3.org/2000/svg" p-id="8213" fill="#717172" xmlns:xlink="http://www.w3.org/1999/xlink" width="200" height="200"><defs><style type="text/css"></style></defs><path d="M608 448a96 96 0 1 0-96 96 96 96 0 0 0 96-96z m64 0a160 160 0 1 1-160-160 160 160 0 0 1 160 160z" p-id="8214"></path><path d="M128 450.88a384 384 0 1 1 576 334.4l-160 160a47.68 47.68 0 0 1-67.84 0l-167.68-167.04A386.24 386.24 0 0 1 128 450.88z m370.56 449.92z m166.72-167.04l3.84-1.92A321.92 321.92 0 1 0 192 450.88a322.24 322.24 0 0 0 153.28 274.88l3.2 2.24 2.56 2.56 160 160z" p-id="8215"></path></svg>
