<?xml version="1.0" standalone="no"?><!DOCTYPE svg PUBLIC "-//W3C//DTD SVG 1.1//EN" "http://www.w3.org/Graphics/SVG/1.1/DTD/svg11.dtd"><svg t="1537416768676" class="icon" style="" viewBox="0 0 1024 1024" version="1.1" xmlns="http://www.w3.org/2000/svg" p-id="6446" xmlns:xlink="http://www.w3.org/1999/xlink" width="200" height="200"><defs><style type="text/css"></style></defs><path d="M378.964 796.3a113.848 113.848 0 1 0 113.848 113.209 113.848 113.848 0 0 0-113.848-113.21z m0 198.915a85.706 85.706 0 1 1 85.706-85.706 85.706 85.706 0 0 1-85.706 85.706zM776.794 796.3a113.848 113.848 0 1 0 113.209 113.848A113.848 113.848 0 0 0 776.793 796.3z m0 198.915a85.706 85.706 0 1 1 85.706-85.706 85.706 85.706 0 0 1-85.706 85.706z m232.174-862.818H103.297l56.284-111.93V17.27c0-3.198 0 0 0 0a12.152 12.152 0 0 0 0-4.477 12.152 12.152 0 0 0-5.116-9.594H14.393a14.071 14.071 0 0 0 0 28.142h110.01L68.12 140.712v3.198c0 3.198 0 0 0 0l132.397 597.384a12.792 12.792 0 0 0 0 3.198 14.071 14.071 0 0 0 8.314 0h729.142a14.071 14.071 0 0 0 0-28.142H299.653l713.792-224.499 3.838-3.198a12.152 12.152 0 0 0 0-4.477V146.468a14.071 14.071 0 0 0-8.315-14.071z m-14.071 335.789L223.54 724.026 95.621 159.26H991.06z" p-id="6447"></path><path d="M774.875 268.631a42.213 42.213 0 1 0 84.427 0 42.213 42.213 0 1 0-84.427 0zM225.46 268.631a42.213 42.213 0 1 0 84.427 0 42.213 42.213 0 1 0-84.427 0zM671.9 452.836a15.99 15.99 0 0 1-10.874-5.117 155.422 155.422 0 0 0-228.336 0 15.99 15.99 0 1 1-23.026-21.747 191.88 191.88 0 0 1 273.109 0 15.99 15.99 0 0 1-10.873 27.503z" p-id="6448"></path></svg>