<?xml version="1.0" standalone="no"?><!DOCTYPE svg PUBLIC "-//W3C//DTD SVG 1.1//EN" "http://www.w3.org/Graphics/SVG/1.1/DTD/svg11.dtd"><svg t="1542596792664" class="icon" style="" viewBox="0 0 1024 1024" version="1.1" xmlns="http://www.w3.org/2000/svg" p-id="18736" xmlns:xlink="http://www.w3.org/1999/xlink" width="200" height="200"><defs><style type="text/css"></style></defs><path d="M970.368 386.176l-65.152-166.848L512 219.328l0 0L118.72 219.328 53.568 386.176C46.336 401.472 41.92 418.368 41.92 436.416c0 64.896 52.608 117.504 117.504 117.504s117.504-52.608 117.504-117.504c0 64.896 52.608 117.504 117.504 117.504 64.832 0 117.44-52.544 117.504-117.376 0.064 64.832 52.672 117.376 117.504 117.376 64.896 0 117.504-52.608 117.504-117.504 0 64.896 52.608 117.504 117.568 117.504 64.896 0 117.504-52.608 117.504-117.504C982.08 418.368 977.664 401.472 970.368 386.176zM886.656 150.656 137.28 150.656c-17.664 0-32-14.336-32-32s14.336-32 32-32l749.376 0c17.664 0 32 14.336 32 32S904.384 150.656 886.656 150.656zM886.656 928 137.28 928c-17.664 0-32-14.336-32-32L105.28 633.344c0-17.664 14.336-32 32-32s32 14.336 32 32L169.28 864l685.376 0L854.656 633.344c0-17.664 14.336-32 32-32s32 14.336 32 32L918.656 896C918.656 913.664 904.384 928 886.656 928z" p-id="18737" fill="#666666"></path></svg>