<?xml version="1.0" standalone="no"?><!DOCTYPE svg PUBLIC "-//W3C//DTD SVG 1.1//EN" "http://www.w3.org/Graphics/SVG/1.1/DTD/svg11.dtd"><svg t="1537259833044" class="icon" style="" viewBox="0 0 1024 1024" version="1.1" xmlns="http://www.w3.org/2000/svg" p-id="5566" fill="#363636" xmlns:xlink="http://www.w3.org/1999/xlink" width="200" height="200"><defs><style type="text/css"></style></defs><path d="M375.258537 0 75.55122 0C33.092683 0 0.62439 32.468293 0.62439 74.926829l0 299.707317c0 42.458537 32.468293 74.926829 74.926829 74.926829l299.707317 0c42.458537 0 74.926829-32.468293 74.926829-74.926829L450.185366 74.926829C450.185366 32.468293 417.717073 0 375.258537 0zM400.234146 349.658537c0 27.473171-22.478049 49.95122-49.95122 49.95122L100.526829 399.609756c-27.473171 0-49.95122-22.478049-49.95122-49.95122L50.57561 99.902439c0-27.473171 22.478049-49.95122 49.95122-49.95122l249.756098 0c27.473171 0 49.95122 22.478049 49.95122 49.95122L400.234146 349.658537z" p-id="5567"></path><path d="M924.721951 0 625.014634 0c-42.458537 0-74.926829 32.468293-74.926829 74.926829l0 299.707317c0 42.458537 32.468293 74.926829 74.926829 74.926829l299.707317 0c42.458537 0 74.926829-32.468293 74.926829-74.926829L999.64878 74.926829C999.64878 32.468293 967.180488 0 924.721951 0zM949.697561 349.658537c0 27.473171-22.478049 49.95122-49.95122 49.95122L649.990244 399.609756c-27.473171 0-49.95122-22.478049-49.95122-49.95122L600.039024 99.902439c0-27.473171 22.478049-49.95122 49.95122-49.95122l249.756098 0c27.473171 0 49.95122 22.478049 49.95122 49.95122L949.697561 349.658537z" p-id="5568"></path><path d="M375.258537 574.439024 75.55122 574.439024c-42.458537 0-74.926829 32.468293-74.926829 74.926829l0 299.707317c0 42.458537 32.468293 74.926829 74.926829 74.926829l299.707317 0c42.458537 0 74.926829-32.468293 74.926829-74.926829L450.185366 649.365854C450.185366 606.907317 417.717073 574.439024 375.258537 574.439024zM400.234146 924.097561c0 27.473171-22.478049 49.95122-49.95122 49.95122L100.526829 974.04878c-27.473171 0-49.95122-22.478049-49.95122-49.95122L50.57561 674.341463c0-27.473171 22.478049-49.95122 49.95122-49.95122l249.756098 0c27.473171 0 49.95122 22.478049 49.95122 49.95122L400.234146 924.097561z" p-id="5569"></path><path d="M1019.629268 981.541463l-79.921951-79.921951c22.478049-32.468293 34.965854-72.429268 34.965854-114.887805 0-117.385366-94.907317-212.292683-212.292683-212.292683S550.087805 669.346341 550.087805 786.731707c0 117.385366 94.907317 212.292683 212.292683 212.292683 54.946341 0 104.897561-22.478049 142.360976-54.946341l74.926829 74.926829c4.995122 4.995122 12.487805 4.995122 19.980488 0l19.980488-19.980488C1024.62439 994.029268 1024.62439 986.536585 1019.629268 981.541463zM600.039024 786.731707c0-89.912195 72.429268-162.341463 162.341463-162.341463 89.912195 0 162.341463 72.429268 162.341463 162.341463 0 42.458537-14.985366 79.921951-42.458537 107.395122L879.765854 899.121951c0 0 0 0 0 0-29.970732 29.970732-69.931707 49.95122-117.385366 49.95122C672.468293 949.073171 600.039024 876.643902 600.039024 786.731707z" p-id="5570"></path></svg>
