<?xml version="1.0" standalone="no"?><!DOCTYPE svg PUBLIC "-//W3C//DTD SVG 1.1//EN" "http://www.w3.org/Graphics/SVG/1.1/DTD/svg11.dtd"><svg t="1537259841021" class="icon" style="" viewBox="0 0 1024 1024" version="1.1" xmlns="http://www.w3.org/2000/svg" p-id="5824" fill="#09AFFF" xmlns:xlink="http://www.w3.org/1999/xlink" width="200" height="200"><defs><style type="text/css"></style></defs><path fill="#09AFFF" d="M377.177338 0 78.010057 0C36.644988 0 2.660409 31.581629 2.660409 75.349648l0 299.167281c0 41.365069 31.581629 75.349648 75.349648 75.349648l299.167281 0c41.365069 0 75.349648-31.581629 75.349648-75.349648L452.526986 75.349648C452.698626 33.984579 418.542407 0 377.177338 0z" p-id="5825"></path><path d="M625.367751 450.038217 924.535032 450.038217c41.365069 0 75.349648-31.581629 75.349648-75.349648L999.88468 75.349648C1000.056319 33.984579 968.303051 0 924.535032 0L625.367751 0c-41.365069 0-75.349648 31.581629-75.349648 75.349648l0 299.167281C552.421053 416.053637 584.002682 450.038217 625.367751 450.038217z" p-id="5826"></path><path d="M377.177338 574.133423 78.010057 574.133423c-41.365069 0-75.349648 31.581629-75.349648 75.349648l0 299.167281c0 41.365069 31.581629 75.349648 75.349648 75.349648l299.167281 0c41.365069 0 75.349648-31.581629 75.349648-75.349648L452.526986 649.483071C452.698626 605.715052 418.542407 574.133423 377.177338 574.133423z" p-id="5827"></path><path d="M1019.451559 980.403621l-80.327187-80.327187c21.969829-31.581629 33.984579-72.946698 33.984579-114.311767 0-116.714717-94.916527-211.631244-211.631244-211.631244s-211.631244 94.916527-211.631244 211.631244S644.76299 997.39591 761.649346 997.39591c55.954408 0 104.528327-21.969829 141.087496-55.954408l75.349648 75.349648c4.8059 4.8059 12.18639 4.8059 19.39524 0l19.39524-19.39524C1024.257459 992.59001 1024.257459 985.209521 1019.451559 980.403621zM883.169963 892.867583l-2.40295 4.8059c-29.178679 29.178679-70.543748 48.573919-116.714717 48.573919-89.938988 0-163.057325-72.946698-163.057325-163.057325s72.946698-163.057325 163.057325-163.057325 163.057325 72.946698 163.057325 163.057325C924.535032 827.129735 909.945692 866.091854 883.169963 892.867583z" p-id="5828"></path></svg>
