<?xml version="1.0" standalone="no"?><!DOCTYPE svg PUBLIC "-//W3C//DTD SVG 1.1//EN" "http://www.w3.org/Graphics/SVG/1.1/DTD/svg11.dtd"><svg t="1537411960244" class="icon" style="" viewBox="0 0 1024 1024" version="1.1" xmlns="http://www.w3.org/2000/svg" p-id="2327" fill="#fc5576" xmlns:xlink="http://www.w3.org/1999/xlink" width="200" height="200"><defs><style type="text/css"></style></defs><path d="M511.999488 831.665507c-23.116487 0-46.287209-10.125615-69.228711-33.067116L187.756733 540.770254c-30.534434-38.080294-59.355853-74.058716-59.355853-143.849222 0-112.804159 91.78238-204.587562 204.586538-204.587562 42.425252 0 83.111906 12.861936 117.712959 37.234019 11.534707 8.132214 14.32117 24.092721 6.161327 35.650965-8.132214 11.530614-24.037463 14.32117-35.646871 6.161327-25.883507-18.257829-56.416917-27.901467-88.228437-27.901467-84.622306 0-153.441695 68.819388-153.441695 153.441695 0 49.073672 16.214287 72.01415 47.286979 110.832248L479.033679 762.54322c12.763698 12.758582 23.070438 17.820877 32.965809 17.97642 10.153244 0.152473 19.920702-4.936429 33.067116-18.082844l253.070786-255.654634c20.790512-22.530133 46.314839-60.558238 46.314839-109.86113 0-84.622306-68.818365-153.441695-153.440671-153.441695-38.408775 0-75.18333 14.270005-103.520725 40.177048L480.341464 390.833383c-10.001795 10.001795-26.164916 10.001795-36.162618 0-10.000771-9.997702-10.000771-26.158776 0-36.160571l107.969037-107.996666c38.615483-35.314297 87.639013-54.341652 138.862651-54.341652 112.804159 0 204.586538 91.783403 204.586538 204.587562 0 65.825195-32.887015 115.308189-60.479443 145.203056L581.329507 798.497083C558.314327 821.538869 535.143605 831.665507 511.999488 831.665507L511.999488 831.665507zM511.999488 831.665507" p-id="2328"></path></svg>
