<?xml version="1.0" standalone="no"?><!DOCTYPE svg PUBLIC "-//W3C//DTD SVG 1.1//EN" "http://www.w3.org/Graphics/SVG/1.1/DTD/svg11.dtd"><svg t="1542597131420" class="icon" style="" viewBox="0 0 1024 1024" version="1.1" xmlns="http://www.w3.org/2000/svg" p-id="23702" xmlns:xlink="http://www.w3.org/1999/xlink" width="200" height="200"><defs><style type="text/css"></style></defs><path d="M942.876444 268.060444a92.501333 92.501333 0 0 0-67.356444-27.932444H322.730667c-20.707556 0-29.013333 11.832889-29.013334 30.833778 0 19.000889 20.024889 32.540444 96.824889 27.648l491.804445-1.080889c4.437333 0 23.381333 5.233778 26.396444 8.419555 5.176889 5.347556 2.275556 34.360889 1.194667 43.178667l-34.759111 238.705778c-1.479111 11.150222-18.432 44.259556-31.175111 44.373333l-22.812445 5.973334-440.206222 28.785777c-10.069333 0.682667-18.887111 0.284444-25.372445 7.224889-6.542222 6.940444-6.883556 4.152889-6.144 13.368889 1.365333 17.92 17.806222 31.971556 37.376 31.971556l2.616889-0.056889 430.876445-29.240889a102.798222 102.798222 0 0 0 64.455111-23.153778c18.090667-14.848 29.639111-34.702222 32.540444-55.978667l50.346667-264.192a94.72 94.72 0 0 0-24.803556-78.848z" p-id="23703" fill="#666666"></path><path d="M858.453333 756.622222H339.797333c-10.752 0-25.884444-3.242667-27.306666-14.165333L254.976 387.413333l-31.232-170.325333c-6.087111-45.624889-37.091556-73.159111-86.357333-73.159111l-46.762667-2.389333c-20.707556 0-35.157333 14.449778-35.157333 33.678222 0 19.228444 16.042667 27.704889 36.693333 27.704889h40.675556c11.264 0 22.869333 10.296889 24.348444 21.560889l30.890667 166.058666 54.158222 354.304c5.973333 45.738667 48.867556 81.578667 97.621333 81.578667H858.453333c20.707556 0 37.546667-15.644444 37.546667-34.872889-0.056889-19.228444-16.896-34.929778-37.546667-34.929778z" p-id="23704" fill="#666666"></path><path d="M740.920889 890.88m-64.455111 0a64.455111 64.455111 0 1 0 128.910222 0 64.455111 64.455111 0 1 0-128.910222 0Z" p-id="23705" fill="#666666"></path><path d="M420.864 890.88m-64.455111 0a64.455111 64.455111 0 1 0 128.910222 0 64.455111 64.455111 0 1 0-128.910222 0Z" p-id="23706" fill="#666666"></path><path d="M512 420.977778m-37.262222 0a37.262222 37.262222 0 1 0 74.524444 0 37.262222 37.262222 0 1 0-74.524444 0Z" p-id="23707" fill="#666666"></path><path d="M676.465778 420.977778m-37.262222 0a37.262222 37.262222 0 1 0 74.524444 0 37.262222 37.262222 0 1 0-74.524444 0Z" p-id="23708" fill="#666666"></path><path d="M499.598222 592.156444a14.165333 14.165333 0 0 1-11.377778-5.688888 14.165333 14.165333 0 0 1 2.730667-19.854223c1.080889-0.853333 112.184889-83.399111 230.286222-9.614222a14.222222 14.222222 0 0 1-15.018666 24.120889c-101.148444-63.032889-194.218667 5.176889-198.087111 8.135111a14.222222 14.222222 0 0 1-8.533334 2.901333z" p-id="23709" fill="#666666"></path></svg>