<?xml version="1.0" standalone="no"?><!DOCTYPE svg PUBLIC "-//W3C//DTD SVG 1.1//EN" "http://www.w3.org/Graphics/SVG/1.1/DTD/svg11.dtd"><svg t="1542591795735" class="icon" style="" viewBox="0 0 1024 1024" version="1.1" xmlns="http://www.w3.org/2000/svg" p-id="10268" xmlns:xlink="http://www.w3.org/1999/xlink" width="200" height="200"><defs><style type="text/css"></style></defs><path d="M761.6 928.8H646.7c-11.6 0-21-9.4-21-21V593.5c0-11.4-14-18.4-26.9-18.4H429.3c-11.2 0-26.9 5.7-26.9 18.4v314.3c0 11.6-9.4 21-21 21H266.5c-60.3 0-109.4-49.1-109.4-109.4V532c0-11.6 9.4-21 21-21s21 9.4 21 21v287.4c0 37.2 30.2 67.4 67.4 67.4h93.9V593.5c0-33.9 30.3-60.4 68.9-60.4h169.5c38.6 0 68.9 26.5 68.9 60.4v293.3h93.9c37.2 0 67.4-30.2 67.4-67.4V532c0-11.6 9.4-21 21-21s21 9.4 21 21v287.4c0 60.3-49 109.4-109.4 109.4z" fill="#515151" p-id="10269"></path><path d="M976 542.9c-5.4 0-10.7-2.1-14.8-6.2L553.9 129.4c-26.3-26.3-69.1-26.3-95.4 0L66.9 521.1c-8.2 8.2-21.5 8.2-29.7 0s-8.2-21.5 0-29.7L428.8 99.7c42.7-42.6 112.1-42.7 154.7 0L990.9 507c8.2 8.2 8.2 21.5 0 29.7-4.1 4.1-9.5 6.2-14.9 6.2z" fill="#515151" p-id="10270"></path></svg>