<?xml version="1.0" standalone="no"?><!DOCTYPE svg PUBLIC "-//W3C//DTD SVG 1.1//EN" "http://www.w3.org/Graphics/SVG/1.1/DTD/svg11.dtd"><svg t="1542597263887" class="icon" style="" viewBox="0 0 1024 1024" version="1.1" xmlns="http://www.w3.org/2000/svg" p-id="8492" xmlns:xlink="http://www.w3.org/1999/xlink" width="200" height="200"><defs><style type="text/css"></style></defs><path d="M692.603 885.461a530.218 530.218 0 0 1-9.329 4.303c-1.107 0.463-2.112 0.926-3.185 1.389-1.468 0.644-6.324 1.717-0.644 0.282-5.997 1.502-11.882 4.856-17.687 6.946-11.983 4.393-24.147 8.278-36.48 11.565a425.331 425.331 0 0 1-37.778 8.369c-2.891 0.508-5.794 1.005-8.719 1.434-1.468 0.226-2.936 0.429-4.404 0.678-1.536 0.192-5.602 1.152 0.125-0.034-6.619 1.367-13.767 1.604-20.487 2.135a438.385 438.385 0 0 1-68.679 0.158c-4.585-0.35-9.137-0.757-13.677-1.242a276.971 276.971 0 0 1-8.154-0.983c-1.536-0.17-4.552-0.734 2.282 0.362-1.807-0.282-3.603-0.531-5.41-0.813a390.878 390.878 0 0 1-28.608-5.252c-18.907-4.133-37.519-9.566-55.725-16.184a510.311 510.311 0 0 1-12.943-4.97c-1.75-0.7-9.623-4.281-2.258-0.859-2.394-1.107-4.834-2.112-7.251-3.173-8.776-3.965-17.438-8.166-25.942-12.695a432.613 432.613 0 0 1-47.774-29.422 444.857 444.857 0 0 1-11.023-8.098c-0.859-0.644-1.705-1.31-2.587-1.988 5.85 4.348 1.942 1.536 0.7 0.553-2.033-1.638-4.066-3.242-6.087-4.89-7.353-6.042-14.547-12.31-21.504-18.816a438.365 438.365 0 0 1-38.299-40.625 785.491 785.491 0 0 1-4.088-5.037c-1.197-1.502-6.72-8.877-1.909-2.361-2.824-3.863-5.749-7.613-8.55-11.498a450.704 450.704 0 0 1-15.947-23.797 432.069 432.069 0 0 1-26.587-49.649 653.698 653.698 0 0 1-2.948-6.584c-0.452-1.039-0.847-2.045-1.31-3.038 3.072 6.686 0.971 2.282 0.373 0.779a434.91 434.91 0 0 1-5.308-13.519 429.436 429.436 0 0 1-9.273-27.715 432.102 432.102 0 0 1-12.683-56.392c-0.396-2.462-0.734-4.947-1.096-7.398-0.463-3.309 0.813 6.427 0.226 1.604-0.158-1.367-0.327-2.744-0.486-4.077a468.377 468.377 0 0 1-1.502-15.044 441.774 441.774 0 0 1-1.446-30.449 440.97 440.97 0 0 1 3.287-59.43c0.192-1.615 1.028-6.619-0.158 0.892 0.226-1.333 0.384-2.677 0.587-4.01 0.316-2.258 0.667-4.495 1.016-6.72 0.79-4.901 1.683-9.792 2.643-14.66a416.45 416.45 0 0 1 6.709-28.789c2.553-9.408 5.41-18.771 8.606-27.998a420.924 420.924 0 0 1 4.495-12.469c0.79-2.045 1.593-4.111 2.394-6.167 0.497-1.208 0.994-2.428 1.479-3.67 0.316-0.757 2.575-6.189 0.824-2.045-1.683 4.01 0.067-0.136 0.338-0.757 0.542-1.208 1.072-2.428 1.615-3.637 0.87-1.999 1.784-4.01 2.71-5.975 1.999-4.371 4.1-8.73 6.279-13.044a433.155 433.155 0 0 1 13.79-25.253 447.997 447.997 0 0 1 15.394-24.248 453.302 453.302 0 0 1 7.51-10.616c1.276-1.773 2.575-3.502 3.863-5.252 0.768-1.039 1.582-2.067 2.361-3.117 2.755-3.637-3.67 4.653-0.136 0.226 11.768-14.784 24.237-28.867 37.722-42.082a441.244 441.244 0 0 1 21.041-19.313c3.298-2.801 6.619-5.613 10.007-8.313 1.852-1.502 3.75-2.936 5.59-4.438 2.484-2.045-4.936 3.739-1.231 0.926 1.412-1.05 2.779-2.112 4.178-3.151a431.702 431.702 0 0 1 46.984-30.562 419.64 419.64 0 0 1 25.615-13.282 639.153 639.153 0 0 1 11.949-5.489c1.208-0.508 2.428-1.039 3.625-1.558 4.348-1.875-4.416 1.784-1.434 0.61 2.665-1.085 5.297-2.191 7.973-3.253 17.743-6.98 35.961-12.74 54.46-17.336a464.404 464.404 0 0 1 29.037-6.122c4.462-0.768 8.911-1.502 13.418-2.135 1.649-0.226 6.619-0.598-0.926 0.136 1.367-0.136 2.71-0.362 4.077-0.553 2.71-0.305 5.444-0.61 8.154-0.859 19.798-2.045 39.756-2.677 59.645-1.976 10.097 0.35 20.239 1.05 30.302 2.078 2.247 0.248 4.529 0.497 6.821 0.757 1.333 0.192 2.677 0.418 4.043 0.553-7.002-0.678-3.354-0.474-1.604-0.237a417.54 417.54 0 0 1 15.428 2.484 421.981 421.981 0 0 1 55.94 13.892 397.43 397.43 0 0 1 27.433 9.815c2.045 0.824 4.077 1.649 6.122 2.484 4.574 1.841-5.364-2.327-0.824-0.362 1.016 0.452 2.045 0.859 3.038 1.31 4.619 2.01 9.193 4.145 13.756 6.313 16.907 8.121 33.25 17.37 48.983 27.625 8.018 5.184 15.846 10.696 23.469 16.433 1.061 0.768 2.067 1.558 3.095 2.361 3.05 2.293-1.536-1.175-1.717-1.344 1.976 1.694 4.088 3.185 6.11 4.845a510.059 510.059 0 0 1 10.989 9.171 442.459 442.459 0 0 1 40.241 39.608c6.246 6.946 12.118 14.118 17.947 21.413 3.016 3.817-3.478-4.563-0.564-0.7 0.519 0.7 1.096 1.367 1.604 2.078a764.443 764.443 0 0 1 4.653 6.302 394.423 394.423 0 0 1 8.222 11.735c10.627 15.676 20.273 32.042 28.733 48.994 2.112 4.111 4.088 8.256 6.031 12.435 0.892 1.965 1.819 3.976 2.71 5.975 0.79 1.784 4.19 10.357 1.265 2.79 3.502 9.081 7.138 18.025 10.323 27.196 6.302 18.613 11.373 37.61 15.134 56.922 0.859 4.416 1.627 8.843 2.394 13.315 0.35 2.225 0.689 4.462 1.005 6.72 0.215 1.333 0.362 2.677 0.576 4.01-1.141-7.33-0.362-2.643-0.147-0.892a434.266 434.266 0 0 1 2.677 30.144c1.253 23.458 0.655 46.961-1.864 70.317-0.271 2.824-0.644 5.67-0.994 8.47-0.655 5.693 0.61-4.077 0.068-0.418-0.181 1.412-0.396 2.813-0.61 4.213-0.904 6.144-1.999 12.265-3.173 18.341a436.435 436.435 0 0 1-8.595 35.882c-3.354 11.69-7.183 23.266-11.52 34.639a367.397 367.397 0 0 1-3.005 7.703c-0.622 1.468-1.118 3.14-1.897 4.563 2.643-4.653 1.072-2.462 0.497-1.141-2.598 6.031-5.319 12.017-8.222 17.947-9.938 20.589-21.527 40.343-34.582 59.124-7.149 10.222-2.225 26.891 8.539 32.572 12.13 6.404 24.938 2.428 32.561-8.539 57.679-83.057 86.288-185.483 80.222-286.464-4.947-82.255-31.736-162.985-78.505-231.01-45.809-66.714-108.83-121.649-182.208-156.118-75.93-35.656-161.077-50.779-244.619-41.517-81.86 9.081-160.862 39.157-226.515 89.212-66.184 50.473-117.176 116.476-149.082 193.367-32.358 77.997-40.761 164.363-27.558 247.522 12.921 81.204 49.231 157.53 101.952 220.438 51.965 61.971 120.768 108.909 196.8 136.162 88.219 31.613 187.008 34.515 277.124 9.092 25.287-7.127 49.886-16.704 73.649-27.941 11.294-5.331 15.078-22.385 8.55-32.539-7.567-11.678-20.567-14.321-32.629-8.572zM471.012 351.667v185.969c0 12.876 10.887 23.808 23.808 23.808h247.951c12.458 0 24.407-10.944 23.83-23.808-0.576-12.909-10.459-23.785-23.83-23.785H494.82l23.808 23.785V351.667c0-12.48-10.967-24.396-23.808-23.819-12.921 0.564-23.808 10.47-23.808 23.819z m0 0z" fill="#666666" p-id="8493"></path></svg>