<?xml version="1.0" standalone="no"?><!DOCTYPE svg PUBLIC "-//W3C//DTD SVG 1.1//EN" "http://www.w3.org/Graphics/SVG/1.1/DTD/svg11.dtd"><svg t="1539322231012" class="icon" style="" viewBox="0 0 1024 1024" version="1.1" xmlns="http://www.w3.org/2000/svg" p-id="1923" xmlns:xlink="http://www.w3.org/1999/xlink" width="200" height="200"><defs><style type="text/css"></style></defs><path d="M955.72992 136.53504H68.26496C30.72 136.53504 0 167.25504 0 204.8v614.4c0 37.55008 30.72 68.27008 68.26496 68.27008h887.46496c37.55008 0 68.27008-30.72 68.27008-68.27008V204.8c0-37.54496-30.72-68.26496-68.27008-68.26496z m-83.2512 454.17472l-45.5168 136.53504a34.09408 34.09408 0 0 1-32.37376 23.33184h-201.09824a34.12992 34.12992 0 0 1-32.36864-44.91776l45.5168-136.53504a34.13504 34.13504 0 0 1 32.37376-23.3472h201.1136a34.13504 34.13504 0 0 1 32.35328 44.93312z m-19.31776-249.37472H170.496c-18.77504 0-34.13504-15.36-34.13504-34.13504s15.36-34.13504 34.13504-34.13504h682.66496c18.77504 0 34.13504 15.36 34.13504 34.13504s-15.36 34.13504-34.13504 34.13504z" p-id="1924" fill="#0385e7"></path></svg>
