<?xml version="1.0" standalone="no"?><!DOCTYPE svg PUBLIC "-//W3C//DTD SVG 1.1//EN" "http://www.w3.org/Graphics/SVG/1.1/DTD/svg11.dtd"><svg t="1542272485281" class="icon" style="" viewBox="0 0 1024 1024" version="1.1" xmlns="http://www.w3.org/2000/svg" p-id="19961" xmlns:xlink="http://www.w3.org/1999/xlink" width="200" height="200"><defs><style type="text/css"></style></defs><path d="M512 16c-273.5 0-496 222.5-496 496s222.5 496 496 496 496-222.5 496-496S785.5 16 512 16zM656.2 730.7 270.6 730.7c-1.1-8.1-1.6-16.4-1.6-24.9 0-86.6 56.9-159.9 135.5-184.8-37.3-20.7-62.5-60.5-62.5-106.3 0-67.1 54.4-121.5 121.5-121.5s121.5 54.4 121.5 121.5c0 45.7-25.3 85.6-62.5 106.3 78.6 24.9 135.5 98.2 135.5 184.8C657.8 714.3 657.2 722.6 656.2 730.7zM753.4 706.5l-47 0c0 0 0-0.1 0-0.1 0-81.4-40-153.3-101.3-197.5 18-26.9 28.4-59.3 28.4-94.2 0-44-16.7-84.1-44.1-114.3 59.7 2.4 107.3 52.7 107.3 114.5 0 44.3-24.5 82.7-60.4 101.8C705.1 539 755 604.8 755 682.6 755 690.8 754.5 698.7 753.4 706.5z" p-id="19962" fill="#FF9900"></path></svg>
