<?xml version="1.0" standalone="no"?><!DOCTYPE svg PUBLIC "-//W3C//DTD SVG 1.1//EN" "http://www.w3.org/Graphics/SVG/1.1/DTD/svg11.dtd"><svg t="1539150503826" class="icon" style="" viewBox="0 0 1024 1024" version="1.1" xmlns="http://www.w3.org/2000/svg" p-id="12509" xmlns:xlink="http://www.w3.org/1999/xlink" width="200" height="200"><defs><style type="text/css"></style></defs><path d="M874.73903389 589.4838363c19.45886265 0 38.33324999 2.46481237 56.33674467 7.10802091L931.07577856 249.59001714c0-54.21307107-44.11979662-82.73014898-98.34334549-82.73014898L466.72929792 166.85986702c0-54.21307107-44.13027555-105.64114773-98.34334549-105.64114773l-65.57659022 0c-54.217728 0-98.34683847 51.42807666-98.34683848 105.64114773l-104.75744711 0c-54.22937088 0-98.35382443 44.15123229-98.35382443 98.35848135l0 500.58167182c0 54.23402781 44.1232896 98.36313941 98.35382443 98.36313942l556.75192207 0c-4.6327296-18.00931555-7.11849984-36.89301789-7.11849984-56.35653746C649.33849771 683.32834589 750.25610069 589.4838363 874.73903389 589.4838363L874.73903389 589.4838363zM778.17706041 282.38937315c27.14437518 0 49.17633024 22.03079111 49.17633024 49.16119439 0 27.14437518-22.03195506 49.18098717-49.17633024 49.18098716-27.15019605 0-49.17633024-22.03079111-49.17633024-49.18098716C729.00073017 304.42482119 751.02686322 282.38937315 778.17706041 282.38937315L778.17706041 282.38937315zM466.72929792 708.56909824c-108.48086243 0-196.69600597-88.21281451-196.69600597-196.69600597 0-108.48784839 88.21630749-196.72162077 196.69600597-196.72162077 108.48784839 0 196.70532096 88.23377237 196.70532096 196.72162077C663.43461774 620.36210461 575.21714631 708.56909824 466.72929792 708.56909824L466.72929792 708.56909824zM853.6082432 624.68513223c-93.36249117 0-169.04283477 75.68499939-169.04283477 169.03701276 0 93.37413405 75.68034247 169.05913458 169.04283477 169.05913458 93.35899933 0 169.03817671-75.68499939 169.03817671-169.05913458C1022.64642105 700.37013277 946.96724253 624.68513223 853.6082432 624.68513223L853.6082432 624.68513223zM938.39453753 811.34375139l-60.13583929 0 0 60.13933227c0 13.46972899-9.46804736 24.38732459-21.13544761 24.38732459s-21.12496981-10.91759445-21.12496981-24.38732459l0-60.13933227-60.14631823 0c-13.4592512 0-24.38033863-9.46222535-24.38033862-21.12962673s10.92225138-21.13544761 24.38033862-21.13544761l60.14631823 0 0-60.13933227c0-13.46972899 9.45640448-24.36753067 21.12496981-24.36753067s21.13544761 10.89663773 21.13544761 24.36753067l0 60.13933227 60.13583929 0c13.4674011 0 24.38499555 9.46222535 24.38499556 21.13544761C962.78069703 801.88152491 951.86310258 811.34375139 938.39453753 811.34375139L938.39453753 811.34375139zM938.39453753 811.34375139" p-id="12510" fill="#ffffff"></path></svg>
