<?xml version="1.0" standalone="no"?><!DOCTYPE svg PUBLIC "-//W3C//DTD SVG 1.1//EN" "http://www.w3.org/Graphics/SVG/1.1/DTD/svg11.dtd"><svg t="1542198766629" class="icon" style="" viewBox="0 0 1024 1024" version="1.1" xmlns="http://www.w3.org/2000/svg" p-id="39840" xmlns:xlink="http://www.w3.org/1999/xlink" width="200" height="200"><defs><style type="text/css"></style></defs><path d="M645.38554126 480.42109095h193.87250638c69.59928714 0 126.15852724-56.55924012 126.15852726-126.15852726V160.23294829c0-69.59928714-56.55924012-126.15852724-126.15852726-126.15852723H645.38554126c-69.59928714 0-126.15852724 56.55924012-126.15852724 126.15852723v193.8725064c0 69.59928714 56.55924012 126.31563625 126.15852724 126.31563626z m0-387.74501277h193.87250638c37.23483307 0 67.71397913 30.32203706 67.71397913 67.71397913v193.87250638c0 37.23483307-30.32203706 67.71397913-67.71397913 67.71397913H645.38554126c-37.23483307 0-67.71397913-30.32203706-67.71397914-67.71397913V160.23294829c0-37.23483307 30.32203706-67.55687014 67.71397914-67.55687011zM354.57678169 34.07442106H160.70427531c-69.59928714 0-126.15852724 56.55924012-126.15852727 126.15852723v193.8725064c0 69.59928714 56.55924012 126.15852724 126.15852727 126.15852724h193.87250638c69.59928714 0 126.15852724-56.55924012 126.15852725-126.15852724V160.23294829c0-69.59928714-56.55924012-126.15852724-126.15852725-126.15852723z m-261.58648551 126.15852723c0-37.23483307 30.32203706-67.71397913 67.71397913-67.71397912h193.87250638c37.23483307 0 67.71397913 30.32203706 67.71397913 67.71397912v193.8725064c0 37.23483307-30.32203706 67.71397913-67.71397913 67.71397912H160.70427531c-37.23483307 0-67.71397913-30.32203706-67.71397913-67.71397912V160.23294829zM980.97036594 939.17937185L945.62084086 903.82984677c-11.46895703-11.46895703-30.00781905-11.46895703-41.47677608 0-11.46895703 11.46895703-11.46895703 30.00781905 0 41.47677609l35.34952507 35.34952507c5.49881501 5.49881501 12.88293803 8.64099502 20.58127904 8.64099501 7.85545002 0 15.23957303-3.14217999 20.58127904-8.64099501 5.49881501-5.49881501 8.64099502-12.88293803 8.64099501-20.73838804 0.31421799-7.85545002-2.670853-15.23957303-8.326777-20.73838804zM354.57678169 518.75568702H160.70427531c-69.59928714 0-126.15852724 56.55924012-126.15852727 126.15852724V838.78672065c0 69.59928714 56.55924012 126.15852724 126.15852727 126.15852724h193.87250638c69.59928714 0 126.15852724-56.55924012 126.15852725-126.15852724V644.91421426c0-69.59928714-56.55924012-126.15852724-126.15852725-126.15852724z m-261.58648551 126.15852724c0-37.23483307 30.32203706-67.71397913 67.71397913-67.71397913h193.87250638c37.23483307 0 67.71397913 30.32203706 67.71397913 67.71397913V838.78672065c0 37.23483307-30.32203706 67.71397913-67.71397913 67.71397914H160.70427531c-37.23483307 0-67.71397913-30.32203706-67.71397913-67.71397914V644.91421426zM965.4165749 742.63601245c0-123.01634725-100.07843321-223.09478044-223.09478046-223.09478044s-223.09478044 100.07843321-223.09478042 223.09478044 100.07843321 223.09478044 223.09478042 223.09478045 223.09478044-100.07843321 223.09478046-223.09478045z m-58.60165712 0c0 90.80900218-73.84123014 164.65023232-164.65023231 164.65023234s-164.65023232-73.84123014-164.65023235-164.65023234S651.51279228 577.98578013 742.32179444 577.98578013c90.80900218 0 164.49312332 73.84123014 164.49312334 164.65023232z" p-id="39841" fill="#666666"></path></svg>