<?xml version="1.0" standalone="no"?><!DOCTYPE svg PUBLIC "-//W3C//DTD SVG 1.1//EN" "http://www.w3.org/Graphics/SVG/1.1/DTD/svg11.dtd"><svg t="1542244958547" class="icon" style="" viewBox="0 0 1024 1024" version="1.1" xmlns="http://www.w3.org/2000/svg" p-id="7118" xmlns:xlink="http://www.w3.org/1999/xlink" width="200" height="200"><defs><style type="text/css"></style></defs><path d="M457.076364 69.507879c111.709091-13.653333 228.227879 15.670303 318.836363 83.00606C915.393939 252.89697 986.453333 437.837576 947.975758 605.711515c-38.632727 194.404848-220.935758 348.780606-419.684849 351.26303-141.032727 7.13697-282.841212-59.42303-368.174545-171.752727-92.625455-115.587879-119.001212-279.58303-69.507879-418.909091C143.36 208.523636 291.529697 88.126061 457.076364 69.507879m275.704242 301.149091c-95.26303 91.539394-187.112727 186.802424-281.289697 279.58303-54.613333-53.837576-106.899394-110.312727-163.529697-162.133333-18.307879-20.945455-62.060606 15.825455-39.098182 35.684848 62.991515 70.438788 133.12 134.516364 199.369697 202.007273 17.532121-12.877576 36.305455-24.513939 50.889697-40.96 92.470303-95.418182 189.44-186.647273 280.51394-283.306667 16.135758-29.323636-29.168485-54.923636-46.855758-30.875151z" p-id="7119" fill="#15B66A"></path></svg>
