<?xml version="1.0" standalone="no"?><!DOCTYPE svg PUBLIC "-//W3C//DTD SVG 1.1//EN" "http://www.w3.org/Graphics/SVG/1.1/DTD/svg11.dtd"><svg t="1542099596811" class="icon" style="" viewBox="0 0 1070 1024" version="1.1" xmlns="http://www.w3.org/2000/svg" p-id="46722" xmlns:xlink="http://www.w3.org/1999/xlink" width="208.984375" height="200"><defs><style type="text/css"></style></defs><path d="M104.517877 326.701955c-0.352887 123.412646-0.687416 246.827332-0.285574 370.242019 0.095871 29.752684 0.159105 59.509447 0.456918 89.26417 0.226419 22.615385 3.202503 46.260874 11.843143 67.309684 8.222478 20.028904 19.822883 38.615662 37.175556 52.02538 18.225711 14.084895 38.782927 23.547578 61.437068 28.108596 28.757256 5.793063 58.220286 4.807835 87.387544 4.952661 33.769071 0.167265 67.536103 0.097911 101.305174 0.010199 67.670731-0.177464 135.343501-0.128508 203.014232-0.124428 33.713997 0.00204 67.430033 0.042836 101.141989 0 22.99071-0.028557 46.597443-2.084687 68.802826-8.251036 20.092139-5.576843 38.428-15.182313 54.08151-28.940839 15.300622-13.444394 25.246741-31.421249 32.400358-50.201789 7.712525-20.253284 10.217413-42.678966 11.239359-64.174494 1.289161-27.160084 0.424281-54.542507 0.463037-81.729108 0.085672-60.360048 0.087712-120.718056 0.057114-181.076064-0.034677-65.806343-0.11015-131.610647-0.181543-197.414951-0.018358-15.573957-12.983397-28.569593-28.571633-28.569593-15.561718 0-28.587951 12.995636-28.571633 28.569593 0.130548 119.137202 0.279454 238.274405 0.150946 357.409568-0.024478 22.433842-0.059155 44.869723-0.112189 67.303565-0.042836 19.155865 0.21214 38.291332-2.264191 57.326848l1.019906-7.596256c-1.795034 13.189418-4.756839 26.207492-9.827809 38.544269 4.465146-10.864033 0.071393-0.554829-1.321798 2.103045a94.679868 94.679868 0 0 1-6.460082 10.500948c-0.361047 0.505873-0.724133 1.007667-1.095378 1.50538-2.596679 3.526833 4.932263-6.266299 2.192797-2.857775a85.202906 85.202906 0 0 1-6.170429 6.810929 84.564445 84.564445 0 0 1-6.158189 5.529927c-3.328972 2.741506 6.927198-5.191319 2.111204-1.637968-1.256524 0.926074-2.551804 1.801153-3.853203 2.661954-4.86087 3.208623-10.064428 5.874656-15.398533 8.19392 10.835476-4.709924 0.073433-0.203981-2.784342 0.76085a141.762786 141.762786 0 0 1-9.307658 2.735387c-7.143418 1.870507-14.431663 3.155588-21.744385 4.138776l7.596256-1.021945c-27.30491 3.520714-55.091216 2.237673-82.549112 2.237673-33.879221 0-67.760482-0.00204-101.639704-0.00612-67.619735-0.012239-135.24151 0.161145-202.863285 0.21418a9230.899596 9230.899596 0 0 1-68.884418-0.177463c-18.550041-0.126468-37.200034 0.279454-55.627687-2.186678l7.594217 1.021946a173.092244 173.092244 0 0 1-19.441439-3.838925 137.364954 137.364954 0 0 1-8.928253-2.686431c-2.708869-0.905676-13.120064-5.295349-2.59056-0.75881a104.550514 104.550514 0 0 1-15.088482-8.077651 96.368832 96.368832 0 0 1-3.443201-2.341703c-5.18112-3.651262 5.166841 4.124498 1.664486 1.356474a91.444728 91.444728 0 0 1-6.892522-6.107194 90.743033 90.743033 0 0 1-5.564604-5.982766c-1.540057-1.792994-5.079129-6.494758 1.256523 1.778715-0.838362-1.093339-1.631849-2.219314-2.421255-3.349369-3.437082-4.930223-6.313215-10.233732-8.809944-15.690227-1.909263-4.171414 3.194344 7.900188 0.742491 1.758317-0.552789-1.387071-1.060702-2.792501-1.560455-4.19997a126.980276 126.980276 0 0 1-2.725188-8.793626c-1.852148-6.698739-3.104592-13.552504-4.036786-20.434827l1.019906 7.596257c-3.398325-26.588937-1.878666-53.977479-1.999015-80.725521-0.140747-30.703235-0.2203-61.404431-0.265176-92.105627-0.091791-62.658915-0.022438-125.31783 0.10811-187.976745 0.085672-40.977764 0.199901-81.957567 0.316171-122.935331 0.044876-15.573957-13.030313-28.569593-28.569593-28.569593-15.606594 0-28.524717 12.995636-28.569593 28.569593z m805.201121-195.728026c-32.534986-2.013293-65.233156-1.984736-97.819137-1.858268-16.752968 0.063234-33.507976 0.267215-50.258904 0.667018-16.024755 0.381445-31.939361 1.181051-47.900882-0.848561l7.596256 1.019905a149.485511 149.485511 0 0 1-16.328687-3.13111 120.008202 120.008202 0 0 1-7.820635-2.300906 108.642375 108.642375 0 0 1-3.820566-1.346276c-6.857845-2.508968 5.058731 2.292748 0.587465 0.334529-4.9649-2.172399-9.705421-4.820073-14.264398-7.741083-2.027572-1.29936-10.058308-7.439191-2.066329-1.18309-2.608918-2.043891-5.079129-4.263205-7.486106-6.541674-2.137722-2.021453-4.151015-4.167334-6.123513-6.347892-1.538018-1.701202-8.151085-10.225573-2.321305-2.531405-5.156642-6.806849-9.946119-13.862556-15.671868-20.230846-8.999646-10.011392-20.451145-18.56432-32.559464-24.434896-14.766192-7.161776-29.371239-10.58254-45.602015-12.373494-14.780471-1.629809-29.946466-0.163185-44.769772 0.128508-16.72645 0.32841-33.45698 0.422241-50.185471 0.187663-15.429131-0.21622-30.901097-1.527818-46.326148-1.234086-37.550881 0.715974-73.82688 14.911019-98.633022 43.745787-3.951114 4.591615-7.606455 9.470843-11.125129 14.399026-0.611943 0.868959-1.234086 1.72976-1.870507 2.582401 2.890412-3.685939 3.418723-4.377434 1.586973-2.074488a109.307353 109.307353 0 0 1-3.979671 4.64669c-2.629316 2.941407-5.478932 5.674754-8.426459 8.293871-1.582893 1.40747-7.377996 5.868536 0.21214 0.061195a96.209727 96.209727 0 0 1-5.797143 4.042905c-3.120911 2.041851-6.400927 3.830765-9.731938 5.499331-1.956179 0.977069-8.579445 3.730814 0.467116-0.028558-1.721601 0.715974-3.475838 1.348315-5.232115 1.970458-7.635013 2.70071-15.604554 4.373355-23.616932 5.466693l7.596256-1.019905c-15.618833 1.962298-31.423289 1.0811-47.125754 0.989308-17.866705-0.10403-35.733409-0.099951-53.600114-0.085672-32.659414 0.028557-65.318828 0.175424-97.980282 0.246817-15.573957 0.032637-28.569593 12.971158-28.569593 28.569593 0 15.549479 12.995636 28.60223 28.569593 28.569594 38.340288-0.081592 76.682616-0.261096 115.024943-0.250897 17.966655 0.00408 35.935351 0.008159 53.899967 0.244777 12.634589 0.167265 24.834699-0.452838 37.375457-2.164239 13.950268-1.905183 26.686848-6.221424 39.513179-11.975731 12.065482-5.409579 23.058024-13.668774 32.634937-22.688818 5.83182-5.495251 10.757963-11.841103 15.573957-18.217552 1.362594-1.805233 8.073572-10.831397 2.105085-3.108672a114.260014 114.260014 0 0 1 5.886894-6.937397c1.964338-2.1622 4.059224-4.202011 6.196946-6.190827 1.778715-1.654287 9.937959-7.969542 1.83583-1.841949 4.383554-3.314693 9.119995-6.137791 14.015542-8.622281 1.213688-0.616023 2.453893-1.179011 3.692058-1.741999-8.465216 3.843004-3.765491 1.572694-1.786875 0.809805 2.555883-0.987269 5.172961-1.813392 7.800237-2.58648 5.385101-1.584933 10.921148-2.621157 16.477594-3.382007l-7.596256 1.019905c10.974183-1.372793 21.846376-1.138215 32.869514-0.656819 14.698878 0.640501 29.412035 0.883238 44.123153 0.921995 14.723356 0.038756 29.446712-0.193782 44.165988-0.534431 12.571355-0.291693 25.128432-1.119856 37.648792 0.428361l-7.596256-1.019906c5.660476 0.777168 11.212841 1.954139 16.683614 3.614545 2.3723 0.720053 11.818665 4.577336 2.256031 0.497714 2.951607 1.260603 5.797143 2.753745 8.585565 4.336638 2.402897 1.364634 4.699725 2.904691 6.953715 4.497784 4.432509 3.13111-5.599281-4.493704-1.358514-1.062742 1.097418 0.889358 2.152001 1.827671 3.202503 2.768024 2.149961 1.917422 4.155095 3.98987 6.113314 6.099035 1.001547 1.0811 1.954139 2.209115 2.906731 3.333051 3.143349 3.718575-4.348877-5.988885 0.148906 0.199901 8.53049 11.735033 17.195607 22.982551 28.547155 32.118865 12.365334 9.952238 24.93261 16.993666 39.694723 22.807127 23.398672 9.213826 49.447059 10.192936 74.271559 9.411688 22.752052-0.715974 45.524502-0.934233 68.288793-0.97503 30.064775-0.053035 60.22542 0.022438 90.245319 1.878666 15.559678 0.962791 28.571633-13.725888 28.571633-28.569593-0.00204-16.30217-13.034392-27.608842-28.573673-28.569593z" fill="#666666" p-id="46723"></path><path d="M909.718998 188.113115c15.573957 0 28.571633-12.995636 28.571633-28.569593s-12.997676-28.569593-28.571633-28.569593-28.571633 12.995636-28.571633 28.569593 12.999716 28.569593 28.571633 28.569593z" fill="#666666" p-id="46724"></path><path d="M909.718998 130.973929c-54.605741-0.287613-109.211482-0.522192-163.817223-0.730253-15.575997-0.059155-28.571633 13.040512-28.571633 28.569594 0 15.618833 12.997676 28.512478 28.571633 28.569593 54.605741 0.210101 109.211482 0.442639 163.817223 0.730252 15.575997 0.083632 28.571633-13.05683 28.571633-28.569593 0-15.637191-12.997676-28.488001-28.571633-28.569593zM348.569027 326.701955v409.371714c0 15.575997 12.995636 28.571633 28.569593 28.571633s28.569593-12.995636 28.569593-28.571633V326.701955c0-15.573957-12.995636-28.569593-28.569593-28.569593s-28.569593 12.995636-28.569593 28.569593z m224.83001 0v409.371714c0 15.575997 12.995636 28.571633 28.571633 28.571633s28.571633-12.995636 28.571633-28.571633V326.701955c0-15.573957-12.995636-28.569593-28.571633-28.569593s-28.571633 12.995636-28.571633 28.569593z" fill="#666666" p-id="46725"></path></svg>