<?xml version="1.0" standalone="no"?><!DOCTYPE svg PUBLIC "-//W3C//DTD SVG 1.1//EN" "http://www.w3.org/Graphics/SVG/1.1/DTD/svg11.dtd"><svg t="1539161709264" class="icon" style="" viewBox="0 0 1152 1024" version="1.1" xmlns="http://www.w3.org/2000/svg" p-id="29321" xmlns:xlink="http://www.w3.org/1999/xlink" width="225" height="200"><defs><style type="text/css"></style></defs><path d="M236.8 870.4m-115.2 0a115.2 115.2 0 1 0 230.4 0 115.2 115.2 0 1 0-230.4 0Z" p-id="29322" fill="#0084e7"></path><path d="M934.4 870.4m-115.2 0a115.2 115.2 0 1 0 230.4 0 115.2 115.2 0 1 0-230.4 0Z" p-id="29323" fill="#0084e7"></path><path d="M1100.8 364.8l-236.8-160c-12.8-6.4-32-12.8-51.2-12.8h-57.6V115.2c0-38.4-25.6-64-64-64H64c-38.4 0-64 25.6-64 64V832c0 38.4 25.6 64 64 64h6.4v-25.6c0-89.6 76.8-166.4 166.4-166.4 89.6 0 166.4 76.8 166.4 166.4v25.6H768v-25.6c0-89.6 76.8-166.4 166.4-166.4 89.6 0 166.4 76.8 166.4 166.4v19.2c25.6-12.8 44.8-38.4 44.8-64v-384c-6.4-32-19.2-57.6-44.8-76.8z m-128 147.2c0 12.8-12.8 25.6-25.6 25.6h-153.6v-192h57.6c6.4 0 12.8 0 19.2 6.4l89.6 57.6c6.4 6.4 12.8 19.2 12.8 25.6V512z" p-id="29324" fill="#0084e7"></path></svg>
