<?xml version="1.0" standalone="no"?><!DOCTYPE svg PUBLIC "-//W3C//DTD SVG 1.1//EN" "http://www.w3.org/Graphics/SVG/1.1/DTD/svg11.dtd"><svg t="1542087176359" class="icon" style="" viewBox="0 0 1024 1024" version="1.1" xmlns="http://www.w3.org/2000/svg" p-id="31303" xmlns:xlink="http://www.w3.org/1999/xlink" width="200" height="200"><defs><style type="text/css"></style></defs><path d="M714.536856 311.026756 310.771953 311.026756c-14.408151 0-25.869181 11.461029-25.869181 25.869181l0 482.674091c0 14.408151 11.461029 25.868157 25.869181 25.868157l384.118448 0c24.231891 0 45.189202-3.273557 45.189202-25.868157l0.327458 0L740.40706 336.895937C740.40706 322.487785 728.945007 311.026756 714.536856 311.026756zM628.415406 622.766756c12.770861 0 24.231891 11.460006 24.231891 24.231891s-11.460006 24.231891-24.231891 24.231891l-93.652983 0 0 69.421092c0 9.497305-11.460006 17.683754-24.238031 17.683754-12.774955 0-24.235984-7.861038-24.235984-17.683754l0-69.421092-93.652983 0c-12.770861 0-24.231891-11.460006-24.231891-24.231891s11.460006-24.231891 24.231891-24.231891l93.652983 0 0-24.231891-93.652983 0c-12.770861 0-24.231891-11.462053-24.231891-24.233937 0-12.769838 11.460006-24.231891 24.231891-24.231891l96.600105 0-88.742137-90.37738c-9.82374-9.82374-9.82374-24.231891 0-34.05563s24.231891-9.82374 34.05563 0l77.613682 79.244832 75.973322-79.57229c9.82374-9.82374 24.231891-9.82374 34.054607 0s9.82374 24.231891 0 34.05563l-88.74009 90.37738 96.92654 0c12.770861 0 24.231891 11.462053 24.231891 24.233937 0 12.769838-11.460006 24.231891-24.231891 24.231891l0 0.327458-95.616708 0 0 24.231891L628.415406 622.766756z" p-id="31304" fill="#0285E7"></path><path d="M856.326163 177.096441l-687.671998 0c-14.408151 0-25.869181 11.461029-25.869181 25.869181l0 111.335714c0 14.408151 11.461029 25.869181 25.869181 25.869181l62.871933 0c0-9.82374 1.63729-20.957311 4.91187-29.143761-20.957311 0-38.640042-17.682731-38.640042-38.640042s17.682731-38.640042 38.640042-38.640042l548.829813 0c20.956288 0 38.640042 17.682731 38.640042 38.640042s-17.683754 38.640042-38.640042 38.640042c3.273557 8.18645 4.910846 20.957311 4.910846 29.143761l62.87091 0c14.408151 0 25.870204-11.461029 25.870204-25.869181l0-111.335714 3.273557 0C882.195344 188.55747 870.734314 177.096441 856.326163 177.096441z" p-id="31305" fill="#0285E7"></path><path d="M873.146247 0 150.85273 0c-83.304288 0-150.836357 67.679425-150.836357 151.164838L0.016373 871.696222c0 83.486436 67.532069 151.165862 150.836357 151.165862l722.293517 0c83.303264 0 150.835334-67.679425 150.835334-151.165862L1023.98158 151.164838C1023.98158 67.678402 956.449511 0 873.146247 0zM931.314041 311.026756c0 43.551912-34.054607 79.244832-77.607542 79.244832l-59.925834 0 0 426.350295c0 43.552935-35.691897 79.243809-79.243809 79.243809L310.771953 895.865691c-43.552935 0-79.244832-35.691897-79.244832-79.243809L231.527121 390.599046l-59.597353 0c-43.551912 0-79.244832-35.69292-79.244832-79.244832L92.684936 206.240201c0-43.551912 35.69292-79.244832 79.244832-79.244832l679.484525 0c43.552935 0 79.245855 35.69292 79.899748 78.917374L931.314041 311.026756z" p-id="31306" fill="#0285E7"></path></svg>
