<?xml version="1.0" standalone="no"?><!DOCTYPE svg PUBLIC "-//W3C//DTD SVG 1.1//EN" "http://www.w3.org/Graphics/SVG/1.1/DTD/svg11.dtd"><svg t="1542098758870" class="icon" style="" viewBox="0 0 1024 1024" version="1.1" xmlns="http://www.w3.org/2000/svg" p-id="15745" xmlns:xlink="http://www.w3.org/1999/xlink" width="200" height="200"><defs><style type="text/css"></style></defs><path d="M114.367767 993.507142c-53.328058 0-96.710284-43.384087-96.710283-96.710284V134.650415c0-53.326196 43.384087-96.710284 96.710283-96.710284h507.027084c13.217047 0 23.970909 10.766895 23.970909 24.000698 0 13.2096-10.753862 23.974633-23.974633 23.998836H119.558516c-29.722065 0-53.90336 24.181295-53.90336 53.90336v751.757499c0 29.723927 24.181295 53.905222 53.90336 53.905221H898.718255c29.722065 0 53.90336-24.181295 53.90336-53.905221V431.010909c0.078196-13.289658 10.845091-24.082618 24.000698-24.082618 13.157469 0 23.926225 10.712902 24.000698 23.881542v465.985163c0 53.326196-43.384087 96.710284-96.712146 96.710284H114.367767z" p-id="15746" fill="#666666"></path><path d="M301.070895 787.245615a21.850298 21.850298 0 0 1-15.423302-6.335768c-5.48864-5.59104-7.599942-13.676916-5.557528-21.142807l51.123666-187.345455 492.730182-492.786036c12.768349-12.757178 30.295505-19.779956 49.349352-19.779956 22.025309 0 44.084131 9.433833 60.520262 25.882996l46.660888 46.716742c16.434269 16.40448 25.864378 38.439098 25.868101 60.449513 0.003724 19.083636-7.033949 36.625687-19.815331 49.394036L493.123025 735.665804l-186.340072 50.820189c-1.861818 0.504553-3.781353 0.759622-5.712058 0.759622z m30.960174-52.696902l126.784233-34.644713-92.213993-92.206545-34.57024 126.851258z m158.101876-63.932975l370.105251-370.159243-93.755578-95.22083-370.877905 370.874182 94.528232 94.505891z m406.110953-406.164945l56.232495-56.230633c11.908189-11.850473 10.886051-32.263447-2.269557-45.50656l-46.6944-46.6944c-6.73792-6.724887-15.801251-10.582575-24.86272-10.582575-7.964858 0-15.307869 2.94912-20.675491 8.30371l-55.487767 55.487767 93.75744 95.222691z" p-id="15747" fill="#666666"></path></svg>