<?xml version="1.0" standalone="no"?><!DOCTYPE svg PUBLIC "-//W3C//DTD SVG 1.1//EN" "http://www.w3.org/Graphics/SVG/1.1/DTD/svg11.dtd"><svg t="1539161741675" class="icon" style="" viewBox="0 0 1024 1024" version="1.1" xmlns="http://www.w3.org/2000/svg" p-id="29988" xmlns:xlink="http://www.w3.org/1999/xlink" width="200" height="200"><defs><style type="text/css"></style></defs><path d="M311.6 461c-21.4-44.9-32.8-94.3-32.8-145.4 0-78.4 27.2-150.4 72-207.7-8.3-1.2-16.8-2-25.5-2.2h-1.7c-109.6 0-198.3 88.9-198.3 198.3 0 54.6 22 104.1 57.8 139.9C76.6 483.1 3.2 565.4 3.2 660.3c0 37.2 47.5 79.7 120.2 109.3v-0.6c0-121.5 71.2-235 188.2-308z" p-id="29989" fill="#c30"></path><path d="M795.1 493.6c45.4-45.6 73.6-108.6 73.6-178.2 0-138.6-111.9-251.1-250.2-252.4-0.7 0-1.4-0.1-2.2-0.1-139.4 0-252.4 113-252.4 252.4 0 69.6 28.2 132.5 73.6 178.2C301.9 543.3 208.6 648 208.6 768.9c0 83.4 187 187.2 407.7 187.2 225.9 0 407.7-101.4 407.7-187.2 0-120.8-93.3-225.4-228.9-275.3z" p-id="29990" fill="#cc3300"></path></svg>
