<?xml version="1.0" standalone="no"?><!DOCTYPE svg PUBLIC "-//W3C//DTD SVG 1.1//EN" "http://www.w3.org/Graphics/SVG/1.1/DTD/svg11.dtd"><svg t="1542099288271" class="icon" style="" viewBox="0 0 1060 1024" version="1.1" xmlns="http://www.w3.org/2000/svg" p-id="19950" xmlns:xlink="http://www.w3.org/1999/xlink" width="207.03125" height="200"><defs><style type="text/css"></style></defs><path d="M992.713144 438.467937" p-id="19951" fill="#666666"></path><path d="M927.655283 0 696.522312 0c0 0.07173 0.056629 0.157303 0.056629 0.242875-14.057824 1.727812-24.912965 13.685331-24.912965 28.198703 0 14.513372 10.855142 26.45579 24.912965 28.198703 0 0.084314-0.056629 0.156044-0.056629 0.241617l231.13297 0c31.369925 0 56.9121 25.527075 56.9121 56.884415l0 796.435925c0 31.371183-25.542176 56.883157-56.9121 56.883157L131.231942 967.085395c-31.371183 0-56.9121-25.511974-56.9121-56.883157L74.319841 113.767572c0-31.356082 25.540917-56.884415 56.9121-56.884415L333.909491 56.883157c0-0.085573-0.027685-0.157303-0.056629-0.241617 14.056565-1.742913 24.911707-13.685331 24.911707-28.198703 0-14.514631-10.855142-26.470891-24.911707-28.198703 0.028944-0.085573 0.056629-0.171145 0.056629-0.242875L131.175313 0.001258c-62.739849 0.042786-113.709685 51.041565-113.709685 113.767572l0 796.435925c0 62.770051 51.026464 113.795257 113.767572 113.795257l796.423341 0c62.739849 0 113.763797-51.025206 113.763797-113.795257L1041.420338 113.767572C1041.419079 51.012622 990.395132 0 927.655283 0zM248.369566 398.197199c-14.285598 14.285598-8.514478 31.68453 5.77112 45.968869l247.76049 247.775591c0 0 14.856921 16.885496 26.113499 16.885496 13.369467 0 29.026744-17.212686 29.026744-17.212686l247.703861-247.732805c14.284339-14.270497 20.455637-31.284352 6.170039-45.56995-14.285598-14.270497-31.314554-8.113042-45.56995 6.157455L557.155936 612.64602 557.155936 237.832805c0-18.599466-8.113042-33.66906-26.683564-33.66906-18.629668 0-29.028003 15.069594-29.028003 33.66906L501.444369 612.64602 293.539338 404.754832C279.25374 390.483076 262.655164 383.912859 248.369566 398.197199zM277.911005 763.22493c-23.198996 0-36.569721 7.098754-36.569721 27.311516 0 20.169976 11.600127 28.428994 36.569721 28.428994l503.350877 0c23.083221 0 36.569721-7.672594 36.569721-27.871514 0-20.183818-13.827533-27.868997-36.569721-27.868997L277.911005 763.22493z" p-id="19952" fill="#666666"></path></svg>