<?xml version="1.0" standalone="no"?><!DOCTYPE svg PUBLIC "-//W3C//DTD SVG 1.1//EN" "http://www.w3.org/Graphics/SVG/1.1/DTD/svg11.dtd"><svg t="1542078866307" class="icon" style="" viewBox="0 0 1024 1024" version="1.1" xmlns="http://www.w3.org/2000/svg" p-id="97407" xmlns:xlink="http://www.w3.org/1999/xlink" width="200" height="200"><defs><style type="text/css"></style></defs><path d="M1023.953953 861.981769c0 89.474725-72.539413 162.017208-162.006975 162.017208H162.028465c-89.467562 0-162.006975-72.543506-162.006976-162.017208V162.018231c0-89.474725 72.539413-162.018231 162.006976-162.018231h699.919536c89.467562 0 162.006975 72.54453 162.006975 162.018231v699.963538z" fill="#0285E7" p-id="97408" data-spm-anchor-id="a313x.7781069.0.i73" class="selected"></path><path d="M756.671761 616.724691c-63.651189 0-115.255283 51.122128-115.255283 114.183907s51.604094 114.183907 115.255283 114.183907 115.255283-51.122128 115.255283-114.183907-51.603071-114.183907-115.255283-114.183907z m-22.04251 185.548593l-14.163242-14.340269-42.023107-42.543958 25.794884-25.376362 32.813572 32.310118 83.688067-80.765574 23.372777 24.573086-109.482951 106.142959z" fill="#FFFFFF" p-id="97409"></path><path d="M707.334236 236.112009h-29.659819v94.685275H362.020678v-94.685275h-29.659819c-60.850467 0-110.644376 49.327292-110.644375 109.617001v420.19731c0 60.288685 49.793909 109.617001 110.644375 109.617001h374.9744c10.814041 0 21.25049-1.623948 31.145624-4.524952-65.146203-8.859573-116.317449-61.073542-122.656679-126.407006H386.151706c-22.817134 0-41.492025-18.497863-41.492025-41.106248 0-22.608385 18.67489-41.106247 41.492025-41.106247h246.852374a143.046589 143.046589 0 0 1 125.042971-73.077659c21.430588 0 41.680308 4.805331 59.932584 13.179867v-256.772066c0-60.289709-49.793909-109.617001-110.645399-109.617001zM653.543389 616.724691H386.151706c-22.817134 0-41.492025-18.497863-41.492025-41.106247 0-22.608385 18.67489-41.106247 41.492025-41.106248H653.543389c22.817134 0 41.492025 18.497863 41.492025 41.106248-0.001023 22.608385-18.675914 41.106247-41.492025 41.106247z" fill="#FFFFFF" p-id="97410"></path><path d="M581.013185 203.030337c-3.787165-30.157134-29.69768-53.512514-61.165637-53.512515-31.463864 0-57.375402 23.355381-61.161545 53.512515H392.340513v105.280333h255.014069V203.030337H581.013185z m-61.165637 35.521176c-15.561044 0-28.177084-12.498362-28.177084-27.916147 0-15.416761 12.615016-27.915124 28.177084-27.915124 15.561044 0 28.17606 12.498362 28.17606 27.915124 0 15.418808-12.615016 27.916147-28.17606 27.916147z" fill="#FFFFFF" p-id="97411"></path></svg>
