<?xml version="1.0" standalone="no"?><!DOCTYPE svg PUBLIC "-//W3C//DTD SVG 1.1//EN" "http://www.w3.org/Graphics/SVG/1.1/DTD/svg11.dtd"><svg t="1542272200292" class="icon" style="" viewBox="0 0 1695 1024" version="1.1" xmlns="http://www.w3.org/2000/svg" p-id="34098" xmlns:xlink="http://www.w3.org/1999/xlink" width="331.0546875" height="200"><defs><style type="text/css"></style></defs><path d="M739.13 1023.988a520.753 520.753 0 0 1-47.212-2.16c-68.825-6.295-134.36-25.881-194.782-58.212-58.362-31.23-109.524-72.977-152.065-124.081s-74.316-108.987-94.442-172.044c-20.837-65.283-28.211-133.283-21.916-202.11 11.704-127.984 70.51-246.009 165.587-332.332C488.791 47.258 610.832 0.011 737.942 0.011c15.654 0 31.54 0.727 47.217 2.16 105.853 9.68 204.42 51.103 285.044 119.792 78.846 67.175 134.933 155.262 162.2 254.74l0.476 1.736 77.262-17.404-64.79 120.792a23.87 23.87 0 0 1-15.408 11.387c-1.722 0.388-3.48 0.585-5.229 0.585-4.861 0-9.57-1.486-13.617-4.298a24.607 24.607 0 0 1-1.32-0.973l-108.952-80.345 80.467-18.124-0.533-1.91C1125.579 190.656 943.675 52.724 738.4 52.724c-253.247 0-459.279 206.03-459.279 459.276 0 253.244 206.03 459.276 459.279 459.279 177.726 0 341.218-103.989 416.513-264.923 0.39-0.965 0.792-1.832 1.231-2.658l0.13-0.238a26.33 26.33 0 0 1 25.533-13.622c14.472 1.325 25.17 14.177 23.845 28.647a26.37 26.37 0 0 1-3.51 10.93l-0.083 0.155c-40.906 87.13-105.51 160.845-186.833 213.177-82.59 53.147-178.062 81.241-276.096 81.241z" p-id="34099" fill="#666666"></path><path d="M754.32 822.53c-14.31 0-25.95-11.64-25.95-25.95V627.692H615.172c-14.308 0-25.948-11.641-25.948-25.95s11.64-25.948 25.948-25.948h113.195v-87.226l-1.88-0.124H615.173c-14.308 0-25.948-11.64-25.948-25.95 0-14.308 11.64-25.948 25.948-25.948h74.087l-104.6-104.67c-5.1-4.954-7.896-11.557-7.896-18.615 0-7.235 2.928-13.959 8.244-18.93 4.838-4.527 11.126-7.02 17.706-7.02s12.87 2.493 17.71 7.02l0.179 0.165 133.716 133.716 133.375-133.37h0.021l0.584-0.577c4.942-5.125 11.57-7.947 18.66-7.947s13.715 2.822 18.656 7.947c4.705 4.872 7.292 11.265 7.29 18.003 0 6.764-2.601 13.17-7.325 18.044L819.376 436.549h74.084c14.31 0 25.95 11.64 25.95 25.948s-11.64 25.95-25.95 25.95H780.262v1.944l0.007 0.123-0.001 85.283H893.46c14.31 0 25.951 11.64 25.951 25.947 0 14.31-11.641 25.951-25.951 25.951H780.268v168.89c0.001 14.304-11.64 25.946-25.948 25.946z" p-id="34100" fill="#666666"></path></svg>