<?xml version="1.0" standalone="no"?><!DOCTYPE svg PUBLIC "-//W3C//DTD SVG 1.1//EN" "http://www.w3.org/Graphics/SVG/1.1/DTD/svg11.dtd"><svg t="1542072937644" class="icon" style="" viewBox="0 0 1024 1024" version="1.1" xmlns="http://www.w3.org/2000/svg" p-id="52006" xmlns:xlink="http://www.w3.org/1999/xlink" width="200" height="200"><defs><style type="text/css"></style></defs><path d="M128 0h768c72.533333 0 128 55.466667 128 128v768c0 72.533333-55.466667 128-128 128H128c-72.533333 0-128-55.466667-128-128V128c0-72.533333 55.466667-128 128-128z" fill="#0285E7" p-id="52007" data-spm-anchor-id="a313x.7781069.0.i41" class="selected"></path><path d="M759.466667 213.333333H264.533333C234.666667 213.333333 213.333333 234.666667 213.333333 264.533333v499.2c0 25.6 21.333333 46.933333 51.2 46.933334h499.2c25.6 0 51.2-21.333333 51.2-51.2V264.533333C810.666667 234.666667 789.333333 213.333333 759.466667 213.333333z m-89.6 311.466667c-12.8 76.8-76.8 136.533333-157.866667 136.533333-81.066667 0-149.333333-59.733333-157.866667-136.533333-17.066667-4.266667-25.6-17.066667-25.6-34.133333 0-21.333333 17.066667-38.4 38.4-38.4s38.4 17.066667 38.4 38.4c0 17.066667-8.533333 29.866667-21.333333 34.133333 8.533333 64 68.266667 115.2 136.533333 115.2s123.733333-51.2 136.533334-115.2c-12.8-4.266667-21.333333-17.066667-21.333334-34.133333 0-21.333333 17.066667-38.4 38.4-38.4s38.4 17.066667 38.4 38.4c-12.8 12.8-25.6 25.6-42.666666 34.133333zM772.266667 298.666667c0 12.8-12.8 25.6-25.6 25.6h-469.333334c-17.066667 0-25.6-8.533333-25.6-25.6v-21.333334c0-12.8 12.8-25.6 25.6-25.6h473.6c12.8 0 25.6 12.8 25.6 25.6V298.666667z" fill="#FFFFFF" p-id="52008"></path></svg>
