<?xml version="1.0" standalone="no"?><!DOCTYPE svg PUBLIC "-//W3C//DTD SVG 1.1//EN" "http://www.w3.org/Graphics/SVG/1.1/DTD/svg11.dtd"><svg t="1539161644232" class="icon" style="" viewBox="0 0 1025 1024" version="1.1" xmlns="http://www.w3.org/2000/svg" p-id="27534" fill="#ff9900" xmlns:xlink="http://www.w3.org/1999/xlink" width="200.1953125" height="200"><defs><style type="text/css"></style></defs><path d="M512-0.009872c-281.770288 0-512.009872 230.229712-512.009872 512.019744 0 281.770288 230.239584 512 512.009872 512 281.78016 0 512.009872-230.229712 512.009872-512C1024.009872 230.21984 793.78016-0.009872 512-0.009872L512-0.009872 512-0.009872zM690.146187 627.85524c15.429596 0 30.84932 9.259732 30.84932 24.669584 0 12.339728-15.429596 24.679456-30.84932 24.679456L535.958816 677.20428l0 83.258614c0 12.339728-12.319985 24.659713-30.829577 24.659713-18.509592 0-30.839449-12.319985-30.839449-24.659713l0-86.33861L320.10242 674.124284c-15.419724 0-30.839449-12.339728-30.839449-24.679456 0-12.319985 12.339728-24.659713 30.839449-24.659713l154.187371 0 0-74.018625L320.10242 550.76649c-15.419724 0-30.839449-9.24986-30.839449-24.669584 0-12.329856 12.339728-21.589588 30.839449-21.589588l129.527658 0L317.012552 307.150641c-9.24986-9.259732-3.079996-24.659713 15.419724-30.839449 15.429596-6.169864 33.929316 0 40.089309 9.24986L508.209236 482.927601l132.597783-197.356676c9.259732-12.339728 27.769324-15.419724 43.179177-9.24986 15.419724 6.169864 21.589588 18.49972 12.329856 30.839449l0 0L554.270973 504.507317l135.875214 0c15.429596 0 30.84932 9.259732 30.84932 24.679456 0 15.409853-15.429596 24.659713-30.84932 24.659713L535.958816 553.846486l0 74.008753L690.146187 627.85524 690.146187 627.85524 690.146187 627.85524zM711.301417 639.138687" p-id="27535"></path></svg>
