<?xml version="1.0" standalone="no"?><!DOCTYPE svg PUBLIC "-//W3C//DTD SVG 1.1//EN" "http://www.w3.org/Graphics/SVG/1.1/DTD/svg11.dtd"><svg t="1542272368681" class="icon" style="" viewBox="0 0 1024 1024" version="1.1" xmlns="http://www.w3.org/2000/svg" p-id="9157" xmlns:xlink="http://www.w3.org/1999/xlink" width="200" height="200"><defs><style type="text/css"></style></defs><path d="M510.634667 5.461333c-279.210667 0-505.173333 225.962667-505.173333 505.173333s225.962667 505.173333 505.173333 505.173333 505.173333-225.962667 505.173333-505.173333S789.162667 5.461333 510.634667 5.461333zM236.202667 211.626667l548.181333 0c10.922667 0 19.114667 6.144 19.114667 17.066667s-8.874667 17.066667-19.114667 17.066667L236.202667 245.76c-10.922667 0-19.114667-6.144-19.114667-17.066667S225.962667 211.626667 236.202667 211.626667zM805.546667 784.384c0 12.288-12.288 27.989333-24.576 27.989333L239.616 812.373333c-12.288 0-21.162667-15.018667-21.162667-27.989333L218.453333 596.650667c0-12.288 11.605333-22.528 23.893333-22.528 12.288 0 23.893333 10.24 23.893333 22.528L266.24 771.413333l491.52 0L757.76 596.650667c0-12.288 11.605333-22.528 23.893333-22.528 12.288 0 23.893333 10.24 23.893333 22.528L805.546667 784.384zM765.269333 539.989333c-47.104 0-84.650667-38.229333-84.650667-84.650667 0 47.104-38.229333 84.650667-84.650667 84.650667s-84.650667-38.229333-84.650667-84.650667c0 47.104-38.229333 84.650667-84.650667 84.650667s-84.650667-38.229333-84.650667-85.333333c0 47.104-38.229333 84.650667-84.650667 84.650667S170.666667 500.394667 170.666667 453.290667c0-10.24 2.048-23.210667 5.461333-30.037333l0 0 0 0c0 0 0 0 0 0l0.682667 0.682667c0.682667-1.365333 1.365333-0.682667 2.048-2.048L229.376 307.2l561.834667 0 50.517333 113.322667c0.682667 2.048 2.048 0 2.730667 2.048l0.682667 0 0 0c3.413333 6.826667 5.461333 19.797333 5.461333 30.037333C849.92 500.394667 811.690667 539.989333 765.269333 539.989333z" p-id="9158" fill="#FF3333"></path></svg>
