<?xml version="1.0" standalone="no"?><!DOCTYPE svg PUBLIC "-//W3C//DTD SVG 1.1//EN" "http://www.w3.org/Graphics/SVG/1.1/DTD/svg11.dtd"><svg t="1539161789309" class="icon" style="" viewBox="0 0 1118 1024" version="1.1" xmlns="http://www.w3.org/2000/svg" p-id="32304" xmlns:xlink="http://www.w3.org/1999/xlink" width="218.359375" height="200"><defs><style type="text/css"></style></defs><path d="M938.1 799.499c-58.889 0-106.548-47.659-106.548-106.457V571.247c0-42.363 25.016-78.701 60.898-95.865v-10.591h3.013c-1.735-4.839-3.013-9.861-3.013-15.247 0-25.199 20.451-45.65 45.65-45.65s45.65 20.451 45.65 45.65c0 5.386-1.369 10.408-3.104 15.247h3.104v10.591c35.881 17.164 60.807 53.502 60.807 95.865v121.795c0 58.798-47.659 106.457-106.457 106.457z m15.156-471.66c0 25.199-20.451 45.65-45.65 45.65s-45.65-20.451-45.65-45.65c0-0.365 0.274-0.731 0.274-1.096-52.68-115.86-168.997-196.753-304.579-196.753-184.884 0-334.799 149.915-334.799 334.799v10.591c35.881 17.164 60.898 53.502 60.898 95.865V693.04c0 58.798-47.659 106.457-106.548 106.457-58.798 0-106.457-47.659-106.457-106.457V571.245c0-42.363 24.925-78.701 60.807-95.865v-25.838c0-226.882 183.971-410.853 410.853-410.853h30.494c182.145 0 336.443 118.691 390.22 282.941l-10.865 1.187c0.182 1.735 1.004 3.195 1.004 5.022zM664.199 860.397h30.403c6.574 0 12.691 1.46 18.351 4.017l80.253-46.381c11.869-6.848 31.682 5.295 44.281 27.116 12.6 21.912 13.238 45.103 1.369 51.95L734.59 957.357c-7.67 14.516-22.368 24.743-39.99 24.743h-30.403c-25.199 0-45.65-20.451-45.65-45.65v-30.403c0-25.199 20.451-45.65 45.65-45.65z" p-id="32305" fill="#0084e7"></path></svg>
