<?xml version="1.0" standalone="no"?><!DOCTYPE svg PUBLIC "-//W3C//DTD SVG 1.1//EN" "http://www.w3.org/Graphics/SVG/1.1/DTD/svg11.dtd"><svg t="1542071819638" class="icon" style="" viewBox="0 0 1024 1024" version="1.1" xmlns="http://www.w3.org/2000/svg" p-id="38920" xmlns:xlink="http://www.w3.org/1999/xlink" width="200" height="200"><defs><style type="text/css"></style></defs><path d="M885.905067 192.824533c0 8.8-7.2 16-16 16H156.7328c-8.8 0-16-7.2-16-16v-7.698133c0-8.8 7.2-16 16-16h713.172267c8.8 0 16 7.2 16 16v7.698133zM919.572267 328.0416c2.7968 8.344533-2.1152 15.1712-10.9152 15.1712H116.6592c-8.8 0-13.642667-6.8032-10.760533-15.117867l29.594666-85.3856c2.882133-8.314667 12.439467-15.117867 21.239467-15.117866h713.172267c8.8 0 18.289067 6.826667 21.0848 15.1712l28.5824 85.278933zM885.905067 386.4448c0 8.8-7.2 16-16 16H156.7328c-8.8 0-16-7.2-16-16v-7.6992c0-8.8 7.2-16 16-16h713.172267c8.8 0 16 7.2 16 16v7.6992z" p-id="38921" fill="#0285E7"></path><path d="M140.7328 405.704533a53.0912 42.221867 0 1 0 106.1824 0 53.0912 42.221867 0 1 0-106.1824 0Z" p-id="38922" fill="#0285E7"></path><path d="M246.916267 404.9792a53.0912 42.221867 0 1 0 106.1824 0 53.0912 42.221867 0 1 0-106.1824 0Z" p-id="38923" fill="#0285E7"></path><path d="M353.541333 404.9792a53.0912 42.221867 0 1 0 106.1824 0 53.0912 42.221867 0 1 0-106.1824 0Z" p-id="38924" fill="#0285E7"></path><path d="M459.7248 404.9792a53.0912 42.221867 0 1 0 106.1824 0 53.0912 42.221867 0 1 0-106.1824 0Z" p-id="38925" fill="#0285E7"></path><path d="M673.042133 404.9792a53.0912 42.221867 0 1 0 106.1824 0 53.0912 42.221867 0 1 0-106.1824 0Z" p-id="38926" fill="#0285E7"></path><path d="M673.042133 405.704533c0 23.317333-23.7696 42.221867-53.090133 42.221867-29.325867 0-53.092267-18.904533-53.092267-42.221867s23.7664-42.221867 53.092267-42.221866c29.319467 0.001067 53.090133 18.904533 53.090133 42.221866z" p-id="38927" fill="#0285E7"></path><path d="M779.226667 405.704533a53.0912 42.221867 0 1 0 106.1824 0 53.0912 42.221867 0 1 0-106.1824 0Z" p-id="38928" fill="#0285E7"></path><path d="M208.7104 818.074667c0 8.8-7.2 16-16 16h-3.828267c-8.8 0-16-7.2-16-16V460.5088c0-8.8 7.2-16 16-16h3.828267c8.8 0 16 7.2 16 16v357.565867z" p-id="38929" fill="#0285E7"></path><path d="M850.2336 818.074667c0 8.8-7.2 16-16 16h-3.831467c-8.8 0-16-7.2-16-16V460.5088c0-8.8 7.2-16 16-16h3.831467c8.8 0 16 7.2 16 16v357.565867z" p-id="38930" fill="#0285E7"></path><path d="M958.933333 818.074667c0 8.8-7.2 16-16 16H80.725333c-8.8 0-16-7.2-16-16v-16.722134c0-8.8 7.2-16 16-16H942.933333c8.8 0 16 7.2 16 16v16.722134z" p-id="38931" fill="#0285E7"></path><path d="M335.6672 593.698133c0 1.784533-0.757333 5.432533-1.682133 8.107734-0.925867 2.6752-7.808 4.864-10.219734 4.864s-6.075733-0.9792-8.142933-2.177067c-2.0672-1.197867-3.758933-9.009067-3.758933-10.7936s0.757333-5.432533 1.6832-8.107733 7.808-4.864 10.219733-4.864 6.075733 0.980267 8.142933 2.177066c2.066133 1.197867 3.757867 9.009067 3.757867 10.7936z" p-id="38932" fill="#0285E7"></path><path d="M328.178133 634.413867c0 8.8-1.979733 16-4.4 16-2.4192 0-4.398933-7.2-4.398933-16v-11.745067c0-8.8 1.979733-16 4.398933-16 2.420267 0 4.4 7.2 4.4 16v11.745067z" p-id="38933" fill="#0285E7"></path><path d="M335.682133 656.237867c0 1.7824-0.757333 5.431467-1.6832 8.106666s-7.806933 4.865067-10.218666 4.865067-6.075733-0.980267-8.142934-2.178133-3.758933-9.010133-3.758933-10.792534c0-1.783467 0.757333-5.432533 1.6832-8.1088 0.925867-2.6752 7.806933-4.865067 10.218667-4.865066s6.075733 0.9792 8.142933 2.177066 3.758933 9.012267 3.758933 10.795734z" p-id="38934" fill="#0285E7"></path><path d="M517.136 308.986667c0 8.8-2.016 16-4.478933 16s-4.478933-7.2-4.478934-16v-50.4192c0-8.8 2.016-16 4.478934-16 2.464 0 4.478933 7.2 4.478933 16v50.4192zM214.9536 310.416c-2.9184 8.301867-7.1872 14.309333-9.488 13.348267-2.3008-0.96-1.7952-8.538667 1.1232-16.8416l16.4416-46.775467c2.9184-8.301867 7.188267-14.309333 9.488-13.349333s1.7952 8.5376-1.1232 16.840533l-16.4416 46.7776zM368.458667 310.416c-2.9184 8.301867-7.1872 14.309333-9.488 13.348267-2.3008-0.96-1.7952-8.538667 1.1232-16.8416l16.442666-46.775467c2.9184-8.301867 7.1872-14.309333 9.488-13.349333s1.7952 8.5376-1.1232 16.840533l-16.442666 46.7776zM821.365333 305.618133c2.8096 8.3392 3.217067 15.918933 0.9056 16.8448-2.312533 0.9248-6.503467-5.141333-9.312-13.480533l-15.851733-47.044267c-2.8096-8.3392-3.216-15.918933-0.903467-16.8448s6.504533 5.141333 9.313067 13.480534l15.848533 47.044266zM672.330667 305.618133c2.8096 8.3392 3.217067 15.918933 0.9056 16.8448-2.312533 0.9248-6.503467-5.141333-9.312-13.480533l-15.850667-47.044267c-2.8096-8.3392-3.216-15.918933-0.903467-16.8448s6.504533 5.141333 9.313067 13.480534l15.847467 47.044266z" p-id="38935" fill="#0285E7"></path><path d="M423.466667 810.314667c0 8.8-7.2 16-16 16h-3.829334c-8.8 0-16-7.2-16-16V452.747733c0-8.8 7.2-16 16-16H407.466667c8.8 0 16 7.2 16 16V810.314667z" p-id="38936" fill="#0285E7"></path><path d="M515.2 554.666667c0 8.8-7.2 16-16 16h-21.333333c-8.8 0-16-7.2-16-16v-8.533334c0-8.8 7.2-16 16-16h21.333333c8.8 0 16 7.2 16 16v8.533334z" p-id="38937" fill="#0285E7"></path><path d="M644.266667 554.666667c0 8.8-7.2 16-16 16h-21.333334c-8.8 0-16-7.2-16-16v-8.533334c0-8.8 7.2-16 16-16h21.333334c8.8 0 16 7.2 16 16v8.533334z" p-id="38938" fill="#0285E7"></path><path d="M761.6 553.6c0 8.8-7.2 16-16 16h-21.333333c-8.8 0-16-7.2-16-16v-8.533333c0-8.8 7.2-16 16-16h21.333333c8.8 0 16 7.2 16 16v8.533333z" p-id="38939" fill="#0285E7"></path></svg>
