<?xml version="1.0" standalone="no"?><!DOCTYPE svg PUBLIC "-//W3C//DTD SVG 1.1//EN" "http://www.w3.org/Graphics/SVG/1.1/DTD/svg11.dtd"><svg t="1542165765604" class="icon" style="" viewBox="0 0 1024 1024" version="1.1" xmlns="http://www.w3.org/2000/svg" p-id="34302" xmlns:xlink="http://www.w3.org/1999/xlink" width="200" height="200"><defs><style type="text/css"></style></defs><path d="M402.067238 741.318826c-7.922437 7.938809-20.782326 7.943926-28.710902 0.011256L209.620182 577.48648c-26.354228-26.469861-46.940079-5.768377-46.940079-5.768377s-20.586874 20.701484 5.767354 46.941102L360.085078 815.252699c1.161453 1.509377 1.973958 2.321882 1.973958 2.321882s1.858324 1.741667 4.992711 3.947915c7.314593 5.457292 14.396895 7.314593 20.781302 7.197936 6.385431 0.116657 13.467733-1.740644 20.782326-7.197936 3.13541-2.089591 4.992711-3.947915 4.992711-3.947915s0.812505-0.812505 1.973958-2.321882l441.367313-442.296475c26.354228-26.238594 5.767354-46.941102 5.767354-46.941102s-20.585851-25.657356-46.941102 0.696872L402.067238 741.318826z" p-id="34303" fill="#666666"></path><path d="M512.713244 3.913123l-0.030699 0c-279.743262 0-506.521219 226.776933-506.521219 506.521219l0 6.02318c0 279.743262 226.776933 506.520195 506.521219 506.520195l0.030699 0c279.743262 0 506.521219-226.776933 506.521219-506.520195l0-6.02318C1019.23344 230.690056 792.456506 3.913123 512.713244 3.913123zM959.450868 513.852184c0 246.734474-200.017476 446.752973-446.752973 446.752973l-0.001023 0c-246.734474 0-446.752973-200.017476-446.752973-446.752973l0-0.814552c0-246.734474 200.017476-446.752973 446.752973-446.752973l0.001023 0c246.734474 0 446.752973 200.018499 446.752973 446.752973L959.450868 513.852184z" p-id="34304" fill="#666666"></path></svg>