<?xml version="1.0" standalone="no"?><!DOCTYPE svg PUBLIC "-//W3C//DTD SVG 1.1//EN" "http://www.w3.org/Graphics/SVG/1.1/DTD/svg11.dtd"><svg t="1542161549749" class="icon" style="" viewBox="0 0 1024 1024" version="1.1" xmlns="http://www.w3.org/2000/svg" p-id="2095" xmlns:xlink="http://www.w3.org/1999/xlink" width="200" height="200"><defs><style type="text/css"></style></defs><path d="M512.12288 0.43008c59.12064 0 108.38016 49.26464 108.38016 108.38528s-49.26464 108.3904-108.38016 108.3904c-59.12064 0-108.39552-49.27488-108.39552-108.3904C403.73248 49.69472 453.00736 0.43008 512.12288 0.43008z m0 400.71168c59.12064 0 108.38016 49.26464 108.38016 108.38528 0 59.13088-49.26464 108.3904-108.38016 108.3904-59.12064 0-108.39552-49.26464-108.39552-108.3904s49.28-108.38528 108.39552-108.38528z m0 400.71168c59.12064 0 108.38016 49.27488 108.38016 108.38528 0 59.13088-49.26464 108.39552-108.38016 108.39552-59.12064 0-108.39552-49.26976-108.39552-108.39552 0.00512-59.1104 49.28-108.38528 108.39552-108.38528z m0 0" p-id="2096" fill="#666666"></path></svg>