<?xml version="1.0" standalone="no"?><!DOCTYPE svg PUBLIC "-//W3C//DTD SVG 1.1//EN" "http://www.w3.org/Graphics/SVG/1.1/DTD/svg11.dtd"><svg t="1542594937305" class="icon" style="" viewBox="0 0 1024 1024" version="1.1" xmlns="http://www.w3.org/2000/svg" p-id="635" xmlns:xlink="http://www.w3.org/1999/xlink" width="200" height="200"><defs><style type="text/css"></style></defs><path d="M858.763636 807.563636c-27.927273-72.145455-76.8-130.327273-139.636363-174.545454-11.636364-6.981818-25.6-4.654545-32.581818 6.981818-6.981818 11.636364-4.654545 25.6 6.981818 32.581818 55.854545 37.236364 97.745455 90.763636 121.018182 151.272727 9.309091 20.945455 4.654545 44.218182-6.981819 65.163637-13.963636 18.618182-34.909091 30.254545-58.181818 30.254545H274.618182c-23.272727 0-44.218182-11.636364-58.181818-30.254545-13.963636-18.618182-16.290909-41.890909-6.981819-65.163637 48.872727-125.672727 167.563636-207.127273 302.545455-207.127272 146.618182 0 267.636364-121.018182 267.636364-267.636364 0-148.945455-118.690909-267.636364-267.636364-267.636364S244.363636 202.472727 244.363636 349.090909c0 104.727273 60.509091 195.490909 148.945455 239.709091-102.4 34.909091-188.509091 111.709091-230.4 218.763636-13.963636 34.909091-9.309091 76.8 11.636364 107.054546 20.945455 32.581818 58.181818 51.2 95.418181 51.2h477.090909c39.563636 0 74.472727-18.618182 95.418182-51.2 25.6-30.254545 30.254545-72.145455 16.290909-107.054546zM290.909091 349.090909c0-121.018182 100.072727-221.090909 221.090909-221.090909s221.090909 100.072727 221.090909 221.090909-100.072727 221.090909-221.090909 221.090909-221.090909-100.072727-221.090909-221.090909z" fill="" p-id="636"></path></svg>