<?xml version="1.0" standalone="no"?><!DOCTYPE svg PUBLIC "-//W3C//DTD SVG 1.1//EN" "http://www.w3.org/Graphics/SVG/1.1/DTD/svg11.dtd"><svg t="1542599635203" class="icon" style="" viewBox="0 0 1024 1024" version="1.1" xmlns="http://www.w3.org/2000/svg" p-id="42653" xmlns:xlink="http://www.w3.org/1999/xlink" width="200" height="200"><defs><style type="text/css"></style></defs><path d="M0 24.551325C0 10.992578 11.152964 0 24.551325 0h974.89735C1013.007422 0 1024 11.152964 1024 24.551325v974.89735c0 13.558747-11.152964 24.551325-24.551325 24.551325H24.551325C10.992578 1024 0 1012.847036 0 999.448675V24.551325z m12.337349 0v974.89735c0 6.662169 5.53947 12.213976 12.213976 12.213976h974.89735c6.662169 0 12.213976-5.53947 12.213976-12.213976V24.551325c0-6.662169-5.53947-12.213976-12.213976-12.213976H24.551325c-6.662169 0-12.213976 5.53947-12.213976 12.213976zM481.156627 481.156627V326.939759a30.843373 30.843373 0 0 1 61.686746 0V481.156627h154.216868a30.843373 30.843373 0 0 1 0 61.686746H542.843373v154.216868a30.843373 30.843373 0 0 1-61.686746 0V542.843373H326.939759a30.843373 30.843373 0 0 1 0-61.686746H481.156627z" fill="#333" p-id="42654"></path></svg>
