<?xml version="1.0" standalone="no"?><!DOCTYPE svg PUBLIC "-//W3C//DTD SVG 1.1//EN" "http://www.w3.org/Graphics/SVG/1.1/DTD/svg11.dtd"><svg t="1542601791872" class="icon" style="" viewBox="0 0 1024 1024" version="1.1" xmlns="http://www.w3.org/2000/svg" p-id="10744" xmlns:xlink="http://www.w3.org/1999/xlink" width="200" height="200"><defs><style type="text/css"></style></defs><path d="M512 959.3C264.9 959.3 64.7 759.1 64.7 512S264.9 64.7 512 64.7 959.3 264.9 959.3 512 759.1 959.3 512 959.3z m-70.7-667.8h-36.1v292.3c-27.5 10.8-51 19.1-70.7 24.9V353.5H299v251.6c0 7.8-4.7 13.7-14.2 17.8l11.2 31c36.9-9.8 73.4-21.4 109.3-34.6V752h36.1V291.5z m241.5 115.4h40.7v-36.1H558.3c6.8-23.4 12.5-49.1 17.3-77.3l-36.1-4.1c-13.9 84.4-40.5 155.7-79.8 214l21.9 28.5c12.9-18 24.7-37.4 35.6-58.5 18.3 59 41.3 110.1 69.1 153.5-29.8 41.7-70.5 74.7-122 99.1l21.9 29.5c49.8-25.4 90.1-58.3 121-98.6 30.2 41.3 66.9 74.4 110.3 99.1l20.8-30.5c-42-23.4-79-56.3-110.8-98.6 34.8-59.5 53.3-132.9 55.3-220zM536.5 433c0.9-2.2 4.2-10.7 10.1-26.1h102.2c-1 72.2-15.4 135-43.2 188.6-28.5-45.4-51.5-99.5-69.1-162.5z" p-id="10745" fill="#FF6600"></path></svg>
