<?xml version="1.0" standalone="no"?><!DOCTYPE svg PUBLIC "-//W3C//DTD SVG 1.1//EN" "http://www.w3.org/Graphics/SVG/1.1/DTD/svg11.dtd"><svg t="1542597890010" class="icon" style="" viewBox="0 0 1331 1024" version="1.1" xmlns="http://www.w3.org/2000/svg" p-id="23737" xmlns:xlink="http://www.w3.org/1999/xlink" width="259.9609375" height="200"><defs><style type="text/css"></style></defs>
  <path d="M1129.584-5.264h-961.195l-99.033 195.516c0 58.619 72.818 102.091 145.635 106.387 55.342 4.369 145.635-4.369 145.635-62.988 0 58.691 96.119 60.803 145.635 62.988 37.866 2.112 145.635-4.369 145.635-62.988 0 58.691 99.033 62.988 145.635 62.988 52.429 0 145.635-4.297 145.635-62.988 0 58.691 84.468 62.988 145.635 62.988 64.080 0 145.635-47.769 145.635-106.387l-104.858-195.516z" fill="#0285E7" p-id="23738"></path>
  <path d="M823.531 944.643c0 0 0 0 0 0 0 52.804 42.805 95.61 95.61 95.61 52.804 0 95.61-42.805 95.61-95.61 0 0 0 0 0 0 0 0 0 0 0 0 0-52.804-42.805-95.61-95.61-95.61-52.804 0-95.61 42.805-95.61 95.61s0 0 0 0z" fill="#0285E7" p-id="23739"></path>
  <path d="M197.953 848.889c0 0 0 0 0 0-8.485 0-15.364 6.879-15.364 15.364 0 0.027 0 0.051 0 0.076v46.599c0 8.519 6.845 15.438 15.364 15.438h143.378c4.442-30.73 19.952-57.963 42.526-77.405h-185.904zM197.953 803.013h481.543c0.021 0 0.048 0 0.073 0 8.446 0 15.292-6.846 15.292-15.292 0-0.027 0-0.051 0-0.078v-410.834c0-0.021 0-0.047 0-0.073 0-25.457-20.637-46.094-46.094-46.094 0 0 0 0 0 0h-420.085c0 0 0 0 0 0-25.457 0-46.094 20.637-46.094 46.094 0 0.027 0 0.051 0 0.076v410.834c0 8.519 6.917 15.364 15.364 15.364z" fill="#0285E7" p-id="23740"></path>
  <path d="M370.604 944.643c0 0 0 0 0 0 0 52.804 42.805 95.61 95.61 95.61 52.804 0 95.61-42.805 95.61-95.61 0 0 0 0 0 0 0 0 0 0 0 0 0-52.804-42.805-95.61-95.61-95.61-52.804 0-95.61 42.805-95.61 95.61s0 0 0 0z" fill="#0285E7" p-id="23741"></path>
  <path d="M1168.396 849.034h-37.356v-161.364c0-24.612-7.282-48.497-21.044-68.813l-93.498-138.572c-22.385-32.871-59.634-54.176-101.859-54.176-0.030 0-0.061 0-0.090 0h-145.121c-16.955 0.041-30.688 13.775-30.73 30.725v392.199h-190.201c22.574 19.515 38.083 46.749 42.526 77.405h203.089c9.029-61.021 61.458-108.062 124.956-108.062s116.071 47.040 124.956 108.062h124.446c0 0 0 0 0 0 8.485 0 15.364-6.879 15.364-15.364 0-0.027 0-0.051 0-0.076v-46.599c0-0.021 0-0.048 0-0.074 0-8.446-6.846-15.292-15.292-15.292-0.051 0-0.102 0-0.154 0.001z" fill="#0285E7" p-id="23742"></path></svg>
