<?xml version="1.0" standalone="no"?><!DOCTYPE svg PUBLIC "-//W3C//DTD SVG 1.1//EN" "http://www.w3.org/Graphics/SVG/1.1/DTD/svg11.dtd"><svg t="1542600623239" class="icon" style="" viewBox="0 0 1024 1024" version="1.1" xmlns="http://www.w3.org/2000/svg" p-id="49649" xmlns:xlink="http://www.w3.org/1999/xlink" width="200" height="200"><defs><style type="text/css"></style></defs><path d="M0 768m34.909091 0l954.181818 0q34.909091 0 34.909091 34.909091l0 0q0 34.909091-34.909091 34.909091l-954.181818 0q-34.909091 0-34.909091-34.909091l0 0q0-34.909091 34.909091-34.909091Z" p-id="49650"></path><path d="M0 488.727273m34.909091 0l954.181818 0q34.909091 0 34.909091 34.909091l0 0q0 34.909091-34.909091 34.909091l-954.181818 0q-34.909091 0-34.909091-34.909091l0 0q0-34.909091 34.909091-34.909091Z" p-id="49651"></path><path d="M0 209.454545m34.909091 0l954.181818 0q34.909091 0 34.909091 34.909091l0 0q0 34.909091-34.909091 34.909091l-954.181818 0q-34.909091 0-34.909091-34.909091l0 0q0-34.909091 34.909091-34.909091Z" p-id="49652"></path></svg>