<?xml version="1.0" standalone="no"?><!DOCTYPE svg PUBLIC "-//W3C//DTD SVG 1.1//EN" "http://www.w3.org/Graphics/SVG/1.1/DTD/svg11.dtd"><svg t="1542600493853" class="icon" style="" viewBox="0 0 1024 1024" version="1.1" xmlns="http://www.w3.org/2000/svg" p-id="46847" xmlns:xlink="http://www.w3.org/1999/xlink" width="200" height="200"><defs><style type="text/css"></style></defs><path d="M887.442286 1024H136.557714A136.557714 136.557714 0 0 1 0 887.442286V136.557714C0 61.147429 61.147429 0 136.557714 0h494.884572c9.508571 0 17.115429 7.606857 17.115428 17.042286V51.2c0 9.435429-7.68 17.042286-17.115428 17.042286h-460.8a102.4 102.4 0 0 0-102.4 102.4v682.715428a102.4 102.4 0 0 0 102.4 102.4h682.715428a102.4 102.4 0 0 0 102.4-102.4v-460.8c0-9.508571 7.606857-17.115429 17.042286-17.115428h34.157714c9.435429 0 17.042286 7.68 17.042286 17.115428v494.884572A136.557714 136.557714 0 0 1 887.442286 1024z m60.196571-812.544l-141.897143-133.851429 43.154286-43.300571a88.210286 88.210286 0 0 1 122.294857-1.901714l17.773714 16.676571a82.651429 82.651429 0 0 1 1.755429 119.222857l-43.154286 43.154286zM271.725714 613.814857l141.897143 133.924572L204.8 819.2l66.925714-205.385143z m641.462857-367.689143L448 713.142857l-141.897143-133.851428 465.188572-467.090286 141.897142 133.851428z" fill="#8D8D8D" p-id="46848"></path></svg>
