<?xml version="1.0" standalone="no"?><!DOCTYPE svg PUBLIC "-//W3C//DTD SVG 1.1//EN" "http://www.w3.org/Graphics/SVG/1.1/DTD/svg11.dtd"><svg t="1542600106840" class="icon" style="" viewBox="0 0 1024 1024" version="1.1" xmlns="http://www.w3.org/2000/svg" p-id="49279" xmlns:xlink="http://www.w3.org/1999/xlink" width="200" height="200"><defs><style type="text/css"></style></defs><path d="M880.710063 547.299723l-15.689363 0 0 239.265178c0 69.826458 15.689363 129.445836 15.689363 129.445836 0 17.2563-14.120426 31.38672-31.383522 31.38672L174.657566 947.397457c-17.254302 0-31.370131-14.13042-31.370131-31.38672 0 0 15.689363-57.264974 15.689363-126.307963L158.976798 547.299723l-15.689363 0c-17.263295 0-31.379725-14.124424-31.379725-31.38712l0-156.892627c0-17.258299 14.116429-31.383722 31.379725-31.383722L410.011996 327.636255 410.011996 155.050268c0-43.147146 35.303065-78.45061 78.457206-78.45061l47.063891 0c43.149744 0 78.448612 35.303464 78.448612 78.45061l0 172.585987 266.728358 0c17.263295 0 31.378725 14.116429 31.378725 31.383722l0 156.901221C912.088788 533.175499 897.969361 547.299723 880.710063 547.299723L880.710063 547.299723 880.710063 547.299723 880.710063 547.299723zM339.403468 916.010937 339.403468 708.116489c0-6.275745 5.502669-11.760027 11.769021-11.760027l7.841683 0c6.284139 0 11.777415 5.484282 11.777415 11.760027l0 207.894448 133.36278 0L504.154367 708.116489c0-6.275745 5.493276-11.760027 11.764024-11.760027l7.836687 0c6.284739 0 11.778015 5.484282 11.778015 11.760027l0 207.894448 125.513502 0L661.046594 708.116489c0-6.275745 5.493276-11.760027 11.765023-11.760027l7.848679 0c6.275745 0 11.765023 5.484282 11.765023 11.760027l0 207.894448 156.901221 0c0 0-15.681368-56.481506-15.681368-126.307963L833.645173 547.299723 190.355923 547.299723l0 242.403051c0 69.826458-15.698357 126.307963-15.698357 126.307963L339.403468 916.010737 339.403468 916.010937 339.403468 916.010937 339.403468 916.010937zM880.710063 374.705342c0-8.631148-7.058215-15.685365-15.689363-15.685365L582.60198 359.019976 582.60198 162.895349c0-30.595256-24.320511-54.91217-54.917566-54.91217l-31.375128 0c-30.597255 0-54.918565 24.316913-54.918565 54.91217l0 196.124628L158.976798 359.019976c-8.635545 0-15.69376 7.054217-15.69376 15.685365l0 125.517699c0 8.636145 7.058215 15.698357 15.69376 15.698357l31.379125 0 643.285253 0 31.379725 0c8.631148 0 15.689363-7.062212 15.689363-15.698357L880.710262 374.705342 880.710063 374.705342 880.710063 374.705342 880.710063 374.705342zM880.710063 547.299723l-15.689363 0 0 239.265178c0 69.826458 15.689363 129.445836 15.689363 129.445836 0 17.2563-14.120426 31.38672-31.383522 31.38672L174.657566 947.397457c-17.254302 0-31.370131-14.13042-31.370131-31.38672 0 0 15.689363-57.264974 15.689363-126.307963L158.976798 547.299723l-15.689363 0c-17.263295 0-31.379725-14.124424-31.379725-31.38712l0-156.892627c0-17.258299 14.116429-31.383722 31.379725-31.383722L410.011996 327.636255 410.011996 155.050268c0-43.147146 35.303065-78.45061 78.457206-78.45061l47.063891 0c43.149744 0 78.448612 35.303464 78.448612 78.45061l0 172.585987 266.728358 0c17.263295 0 31.378725 14.116429 31.378725 31.383722l0 156.901221C912.088788 533.175499 897.969361 547.299723 880.710063 547.299723L880.710063 547.299723 880.710063 547.299723 880.710063 547.299723zM339.403468 905.933769l0-197.81748c0-6.275745 5.502669-11.760027 11.769021-11.760027l7.841683 0c6.284139 0 11.777415 5.484282 11.777415 11.760027l0 197.81748 133.36278 0 0-197.81748c0-6.275745 5.493276-11.760027 11.764024-11.760027l7.836687 0c6.284739 0 11.778015 5.484282 11.778015 11.760027l0 197.81748 125.513502 0 0-197.81748c0-6.275745 5.493276-11.760027 11.765023-11.760027l7.848679 0c6.275745 0 11.765023 5.484282 11.765023 11.760027l0 197.81748 146.833047 0c0 0-15.690362-46.404538-15.690362-116.230995L823.568005 547.299723l-623.143509 0 0 242.403051c0 69.826458-15.689363 116.230995-15.689363 116.230995L339.403468 905.933769l0 10.076968L339.403468 905.933769 339.403468 905.933769zM870.636892 384.778512c0-8.631148-7.057215-15.685765-15.689363-15.685765L572.524812 369.092747 572.524812 162.895349c0-30.595256-24.316513-44.841398-54.909571-44.841398l-11.23838 0c-30.591659 0-54.917566 14.246341-54.917566 44.841398l0 206.197198L169.044972 369.092547c-8.631148 0-15.689363 7.054617-15.689363 15.685765l0 105.376355c0 8.631148 7.058215 15.689762 15.689363 15.689762l31.379725 0 623.143509 0 31.379725 0c8.632147 0 15.689363-7.058614 15.689363-15.689762L870.637292 384.778512l10.07317 0L870.636892 384.778512 870.636892 384.778512z" p-id="49280" fill="#666666"></path></svg>