<?xml version="1.0" standalone="no"?><!DOCTYPE svg PUBLIC "-//W3C//DTD SVG 1.1//EN" "http://www.w3.org/Graphics/SVG/1.1/DTD/svg11.dtd"><svg t="1542597790146" class="icon" style="" viewBox="0 0 1024 1024" version="1.1" xmlns="http://www.w3.org/2000/svg" p-id="18091" xmlns:xlink="http://www.w3.org/1999/xlink" width="200" height="200"><defs><style type="text/css"></style></defs><path d="M737.725052 699.994934c-49.035246 0-88.768462 39.73141-88.768461 88.732337 0 49.01899 39.73141 88.754012 88.768461 88.754012 49.000928 0 88.73595-39.735022 88.73595-88.754012-0.001806-49.000928-39.736828-88.732337-88.73595-88.732337" p-id="18092" fill="#666666"></path><path d="M842.590542 312.76135H713.510874v341.120801c7.885954-1.417882 15.95253-2.279449 24.196116-2.279449 75.62099 0 137.1625 61.519835 137.1625 137.140825 0 2.716554-0.254677 5.389759-0.413624 8.066577h32.670897c35.640322 0 64.539834-28.881449 64.539834-64.536222V506.379045c0-2.391435-128.393304-193.617695-129.076055-193.617695M285.946216 699.994934c-49.01899 0-88.752206 39.73141-88.752206 88.732337 0 49.01899 39.733216 88.754012 88.752206 88.754012s88.741368-39.735022 88.741368-88.754012c0-49.000928-39.722378-88.732337-88.741368-88.732337" p-id="18093" fill="#666666"></path><path d="M681.249989 663.892219V199.813028c0-35.618648-28.899511-64.519965-64.552478-64.519965H116.533667c-35.645741 0-64.538028 28.901318-64.538027 64.519965v532.442792c0 35.672834 28.892287 64.554284 64.538027 64.554284h32.663673c-0.144498-2.675011-0.404593-5.350022-0.404593-8.066577 0-75.639052 61.530672-137.140825 137.142631-137.140825 75.639052 0 137.142631 61.501773 137.142632 137.140825 0 2.716554-0.233002 5.389759-0.404594 8.066577h178.304567c-0.144498-2.675011-0.413624-5.350022-0.413624-8.066577 0.001806-55.463581 33.176639-103.263373 80.68563-124.851308M398.892731 480.313492c0 8.801707-7.194172 15.986848-15.968786 15.986848h-0.350407c-0.108373 0-0.21494-0.090311-0.341375-0.090311-0.13366 0-0.223971 0.090311-0.350407 0.090311h-118.991932c-9.339961 0-16.992913-7.651146-16.992913-17.02723 0-9.339961 7.652952-16.992913 16.992913-16.992913h103.742021v-133.513937c0-8.783645 7.17611-15.968786 15.941693-15.968786h0.350407c8.774614 0 15.968786 7.185141 15.968786 15.968786v151.547232z" p-id="18094" fill="#666666"></path></svg>