<?xml version="1.0" standalone="no"?><!DOCTYPE svg PUBLIC "-//W3C//DTD SVG 1.1//EN" "http://www.w3.org/Graphics/SVG/1.1/DTD/svg11.dtd"><svg t="1542601376641" class="icon" style="" viewBox="0 0 1024 1024" version="1.1" xmlns="http://www.w3.org/2000/svg" p-id="17867" xmlns:xlink="http://www.w3.org/1999/xlink" width="200" height="200"><defs><style type="text/css"></style></defs><path d="M8.20328 505.33247434c0-278.243486 225.498086-503.80048 503.799227-503.80048001 278.296127 0 503.794213 225.498086 503.794213 503.80048001 0 278.296127-225.498086 503.794213-503.794213 503.794213-278.301141 0-503.799226-225.498086-503.799227-503.794213z m220.744069 6.179094v-2.15955c0.107789-0.729459 1.194458-6.28187 10.340269-21.27463401l2.139496-3.43547599-4.396808-2.80001901 4.47577 2.65337501-2.002879-1.341101 2.15955 1.11674899c4.655001-7.329684 10.448059-15.672088 16.728675-24.010732a0.7821 0.7821 0 0 1 0.131604-0.17171099 499.503941 499.503941 0 0 1 11.059701-14.18308901h77.351481a8.447687 8.447687 0 0 1 8.44142 8.440166v48.74465601a8.447687 8.447687 0 0 1-8.44142 8.446433h-117.988113m-0.057654 125.44313399v-93.58633099h117.968058c22.257273 0 40.303236-18.042203 40.303237-40.303236v-48.699535c0-22.257273-18.045963-40.30449-40.303237-40.304489H297.799755l2.42777-2.39392901c10.835349-10.555848 16.064392-13.659182 17.708808-14.46259h101.967589c2.242272 0 4.386781 0.88613 5.973542 2.47289101a8.432646 8.432646 0 0 1 2.472891 5.967275V636.85819234a8.455207 8.455207 0 0 1-2.472891 5.968529 8.458967 8.458967 0 0 1-5.973542 2.47289099h-10.075809c-7.181787-33.008646-34.952617-57.532005-68.59296-60.577684h-0.817195v0.097762-0.12282899h-0.078962v0.11280199l-0.087735-0.11280199v0.08773499-0.08773499l-0.112803 0.068935v-0.068935h-0.087736l-0.538947-0.087736h-2.585694v0.063922l-0.092749-0.063922-0.112803 0.087736-0.087736-0.087736v0.087736l-0.087735-0.06893601h-3.192324a0.466252 0.466252 0 0 0-0.166697 0h-0.773327a0.082722 0.082722 0 0 1-0.068935 0c-0.01504 0.010027-0.033841 0.010027-0.053895 0h-1.007706a3.312646 3.312646 0 0 1-0.446198 0h-0.685592a4.925728 4.925728 0 0 0-0.523907 0.09274901 0.424891 0.424891 0 0 1-0.112803 0h-0.434918v-0.14664301c-33.938644 2.751138-62.085483 27.378526-69.327432 60.64661901h-22.345008a8.44142 8.44142 0 0 1-8.440167-8.440166h-0.088989m105.876838 69.296097a44.955731 44.955731 0 0 1-41.537802-27.755789 44.963251 44.963251 0 0 1 9.743667-48.999089 44.960744 44.960744 0 0 1 48.999089-9.742414 44.958237 44.958237 0 0 1 27.75579 41.537802c-0.035094 24.8179-20.142845 44.92565-44.960744 44.95949m125.478227-300.387955v-85.185019a8.44142 8.44142 0 0 1 8.440167-8.44016601h304.293444c2.242272 0 4.386781 0.88613 5.968529 2.47289101a8.420113 8.420113 0 0 1 2.472891 5.967275v316.474908a8.43766 8.43766 0 0 1-8.44142 8.44141999h-46.639001c-7.275789-34.663089-37.3666-59.819398-72.769175-60.83713099h-4.72519c-35.397562 1.037787-65.478345 26.184069-72.774188 60.83713099h-107.476133a8.447687 8.447687 0 0 1-8.44142-8.44141999V405.68862634m191.098204 300.56969399c-18.188847 0.010027-34.585381-10.941885-41.551589-27.74074999s-3.128401-36.142061 9.728627-49.004102a44.960744 44.960744 0 0 1 76.763652 31.785361c-0.030081 24.806619-20.127804 44.91437-44.94069 44.95949099M222.685532 455.37832034c-4.959569 7.137919-9.268641 13.845934-12.818173 19.917238-11.284054 19.255461-12.739212 28.200734-12.739212 33.86594899V636.97099533a40.31201 40.31201 0 0 0 40.304489 40.30323601h22.222179c7.530223 35.47151 38.849332 60.842144 75.114223 60.84214499s67.589013-25.370634 75.119236-60.84214499h10.075809a39.894639 39.894639 0 0 0 24.337861-8.2108 40.031256 40.031256 0 0 0 24.362927 8.2108h107.476133c7.520196 35.486551 38.849332 60.870972 75.124249 60.87097199s67.59904-25.385674 75.119237-60.87097199h46.585106a40.300729 40.300729 0 0 0 28.499036-11.809214 40.284436 40.284436 0 0 0 11.8042-28.49402201V320.50486134c0-22.261033-18.042203-40.303236-40.303236-40.303237H468.653591c-22.262286 0-40.303236 18.042203-40.303236 40.303237v45.899515a40.187927 40.187927 0 0 0-8.44518-0.894903h-103.422747c-6.716788 0-16.201009 2.476651-35.633194 20.837209a382.181366 382.181366 0 0 0-27.823471 29.747388l-0.097763 0.12283-7.378565 8.630678h0.166697l-0.940024 1.11674899c-7.838551 9.742414-15.515417 19.917239-22.100602 29.380152" p-id="17868" fill="#35CC9A"></path></svg>
