<?xml version="1.0" standalone="no"?><!DOCTYPE svg PUBLIC "-//W3C//DTD SVG 1.1//EN" "http://www.w3.org/Graphics/SVG/1.1/DTD/svg11.dtd"><svg t="1542601218096" class="icon" style="" viewBox="0 0 1024 1024" version="1.1" xmlns="http://www.w3.org/2000/svg" p-id="15059" xmlns:xlink="http://www.w3.org/1999/xlink" width="200" height="200"><defs><style type="text/css"></style></defs><path d="M511.999512 1023.999512a510.000276 510.000276 0 0 1-337.383297-126.878355C67.583936 803.278961 0 665.526711 0 512c0-122.27036 42.861673-234.520158 114.370939-322.559693C208.237516 73.850322 351.499856 0.000488 511.999512 0.000488a510.317228 510.317228 0 0 1 356.010328 144.042529A510.487895 510.487895 0 0 1 1023.999025 512c0 112.103512-36.035013 215.819985-97.158003 300.153619C833.803396 940.49483 682.666017 1023.999512 511.999512 1023.999512zM245.954813 647.533585l94.524863 0.463238 121.514551 91.404103c41.545103 31.256351 74.386215 16.603413 74.386215-33.401873V318.049709c0-50.078428-32.79235-64.731367-74.386215-33.401873l-122.099694 91.867341h-93.93972c-28.111211 0-50.90738 21.577122-50.90738 48.079192v174.860024c0 26.50207 22.796169 48.079192 50.90738 48.079192z m111.030752-225.157881L487.618583 324.096179v375.856404l-130.608637-98.279526h-111.055133a2.194284 2.194284 0 0 1-2.145521-2.218664v-174.884405c0-1.219046 1.023999-2.194284 2.145521-2.194284h111.030752z m355.010709 296.325813C784.480777 672.987275 828.951591 596.089825 828.951591 512.121905c0.146286-83.041445-43.861292-160.621561-117.223507-206.799041a25.648737 25.648737 0 0 0-24.551596-1.779808 22.966835 22.966835 0 0 0-13.702082 19.236553 22.625502 22.625502 0 0 0 11.142085 20.675028c59.245658 37.278441 95.573242 100.010571 95.573242 168.667268 0.146286 67.608317-35.644918 130.828066-95.353814 168.496601a22.113503 22.113503 0 0 0-6.582851 31.768351c7.484945 10.4838 22.552359 13.311987 33.743206 6.31466z m-67.242602-74.727547c48.054811-28.720735 77.799545-78.360306 77.799545-132.75416 0-53.150426-28.428163-101.839141-74.751929-130.876827-11.215227-6.924184-26.258261-4.047234-33.694444 6.460946-7.436183 10.50818-4.437329 24.697881 6.680374 31.74397 32.889873 20.601885 53.00414 55.027757 53.00414 92.671911 0 38.521868-21.040742 73.630406-55.174042 94.012863-11.361513 6.802279-14.726081 20.967599-7.509327 31.670827 7.216755 10.678847 22.284169 13.848368 33.645683 7.07047z" p-id="15060" fill="#FF6767"></path></svg>
