<?xml version="1.0" standalone="no"?><!DOCTYPE svg PUBLIC "-//W3C//DTD SVG 1.1//EN" "http://www.w3.org/Graphics/SVG/1.1/DTD/svg11.dtd"><svg t="1542601487022" class="icon" style="" viewBox="0 0 1024 1024" version="1.1" xmlns="http://www.w3.org/2000/svg" p-id="20136" xmlns:xlink="http://www.w3.org/1999/xlink" width="200" height="200"><defs><style type="text/css"></style></defs><path d="M511.006118 28.912941C777.035294 28.912941 992.737882 245.007059 992.677647 511.397647c-0.060235 265.848471-216.304941 481.370353-482.876235 481.28C244.073412 992.587294 28.762353 776.161882 28.912941 509.44 29.063529 244.525176 245.398588 28.882824 511.006118 28.912941zM316.536471 626.989176h423.393882c4.397176 0 8.854588-0.030118 13.191529-0.512a22.738824 22.738824 0 0 0 20.961883-22.859294c0.090353-12.528941-8.402824-22.106353-21.172706-23.521882-3.824941-0.421647-7.770353-0.421647-11.65553-0.421647H269.281882c-3.132235 0-6.234353 0.060235-9.33647 0.240941-10.330353 0.602353-17.709176 5.541647-21.473883 15.179294-3.794824 9.758118-0.993882 18.281412 6.053647 25.660236 8.252235 8.583529 16.564706 17.106824 24.877177 25.72047 40.387765 41.712941 80.835765 83.365647 121.163294 125.108706 6.083765 6.294588 12.890353 10.601412 21.895529 9.426824 9.487059-1.234824 16.323765-6.354824 19.516236-15.600942 3.403294-9.818353 0.632471-18.191059-6.475294-25.539764-34.123294-35.117176-68.186353-70.354824-102.27953-105.532236-1.686588-1.807059-3.373176-3.704471-6.686117-7.348706z m378.337882-230.038588H268.348235c-2.861176 0-5.722353-0.090353-8.553411 0.060236a23.973647 23.973647 0 0 0-22.91953 22.256941 23.792941 23.792941 0 0 0 18.82353 24.304941c2.981647 0.632471 6.174118 0.572235 9.276235 0.572235h481.310117c2.048 0 4.156235 0.090353 6.204236-0.090353 12.8-1.204706 22.678588-11.384471 21.202823-24.003764a34.334118 34.334118 0 0 0-8.643764-18.191059c-32.075294-33.852235-64.752941-67.162353-97.249883-100.653177-16.414118-16.926118-32.647529-34.032941-49.332706-50.718117-13.944471-13.944471-35.749647-8.131765-40.327529 10.541176-2.349176 9.547294 1.536 17.046588 8.101647 23.792941 33.611294 34.544941 67.162353 69.150118 100.743529 103.755294l7.890824 8.372706z" fill="#FF9A02" p-id="20137"></path></svg>
