<?xml version="1.0" standalone="no"?><!DOCTYPE svg PUBLIC "-//W3C//DTD SVG 1.1//EN" "http://www.w3.org/Graphics/SVG/1.1/DTD/svg11.dtd"><svg t="1542244676579" class="icon" style="" viewBox="0 0 1638 1024" version="1.1" xmlns="http://www.w3.org/2000/svg" p-id="2887" xmlns:xlink="http://www.w3.org/1999/xlink" width="319.921875" height="200"><defs><style type="text/css"></style></defs><path d="M664.576 448.512l-130.048-71.68c-5.12-3.072-11.264-3.072-16.384-2.048-6.144 1.024-10.24 5.12-13.312 9.216-6.144 9.216-3.072 22.528 7.168 27.648l130.048 71.68c5.12 3.072 11.264 4.096 16.384 2.048 6.144-1.024 10.24-5.12 13.312-9.216 3.072-5.12 4.096-10.24 2.048-15.36 0-5.12-4.096-9.216-9.216-12.288zM143.36 363.52c0-39.936-31.744-71.68-71.68-71.68s-71.68 31.744-71.68 71.68 31.744 71.68 71.68 71.68 71.68-31.744 71.68-71.68z m-71.68 40.96c-22.528 0-40.96-18.432-40.96-40.96s18.432-40.96 40.96-40.96 40.96 18.432 40.96 40.96-18.432 40.96-40.96 40.96z m348.16 260.096l376.832 228.352c4.096 2.048 8.192 3.072 12.288 3.072 4.096 0 7.168-1.024 11.264-3.072l398.336-225.28c6.144-4.096 10.24-11.264 10.24-18.432V374.784c0-8.192-4.096-15.36-10.24-19.456-7.168-4.096-15.36-4.096-21.504 0-7.168 4.096-10.24 11.264-10.24 19.456v262.144L830.464 838.656V467.968c0-3.072-1.024-6.144-2.048-9.216l368.64-206.848c7.168-4.096 11.264-11.264 11.264-19.456 0-8.192-5.12-15.36-12.288-18.432L818.176 27.648c-6.144-3.072-13.312-3.072-19.456 0L420.864 214.016c-7.168 3.072-11.264 10.24-12.288 18.432v4.096c0 1.024 0 2.048-1.024 4.096V645.12c2.048 8.192 6.144 15.36 12.288 19.456z m389.12-593.92l332.8 163.84L808.96 419.84 476.16 234.496 808.96 70.656zM452.608 269.312l337.92 189.44c-1.024 3.072-2.048 6.144-2.048 9.216v369.664L452.608 633.856V269.312zM194.56 752.64h-30.72v-28.672c0-6.144-4.096-12.288-10.24-12.288s-10.24 5.12-10.24 12.288v28.672h-30.72c-6.144 0-10.24 4.096-10.24 10.24s4.096 10.24 10.24 10.24h30.72v28.672c0 6.144 4.096 12.288 10.24 12.288s10.24-5.12 10.24-12.288v-28.672h30.72c6.144 0 10.24-4.096 10.24-10.24s-4.096-10.24-10.24-10.24z m1433.6-92.16h-30.72v-28.672c0-6.144-4.096-12.288-10.24-12.288s-10.24 5.12-10.24 12.288v28.672h-30.72c-6.144 0-10.24 4.096-10.24 10.24s4.096 10.24 10.24 10.24h30.72v28.672c0 6.144 4.096 12.288 10.24 12.288s10.24-5.12 10.24-12.288v-28.672h30.72c6.144 0 10.24-4.096 10.24-10.24s-4.096-10.24-10.24-10.24z m-204.8-491.52c-33.792 0-61.44 27.648-61.44 61.44s27.648 61.44 61.44 61.44 61.44-27.648 61.44-61.44-27.648-61.44-61.44-61.44z m0 92.16c-17.408 0-30.72-13.312-30.72-30.72s13.312-30.72 30.72-30.72 30.72 13.312 30.72 30.72-13.312 30.72-30.72 30.72zM245.76 122.88c0 8.192 7.168 15.36 15.36 15.36S276.48 131.072 276.48 122.88V87.04h35.84c8.192 0 15.36-7.168 15.36-15.36s-7.168-15.36-15.36-15.36H276.48V20.48c0-8.192-7.168-15.36-15.36-15.36S245.76 12.288 245.76 20.48v35.84h-35.84c-8.192 0-15.36 7.168-15.36 15.36s7.168 15.36 15.36 15.36H245.76V122.88z m153.6 855.04H256c-11.264 0-20.48 9.216-20.48 20.48s9.216 20.48 20.48 20.48h143.36c11.264 0 20.48-9.216 20.48-20.48s-9.216-20.48-20.48-20.48z m880.64 0H481.28c-11.264 0-20.48 9.216-20.48 20.48s9.216 20.48 20.48 20.48h798.72c11.264 0 20.48-9.216 20.48-20.48s-9.216-20.48-20.48-20.48z" p-id="2888" fill="#666666"></path></svg>