<?xml version="1.0" standalone="no"?><!DOCTYPE svg PUBLIC "-//W3C//DTD SVG 1.1//EN" "http://www.w3.org/Graphics/SVG/1.1/DTD/svg11.dtd"><svg t="1542600348154" class="icon" style="" viewBox="0 0 1024 1024" version="1.1" xmlns="http://www.w3.org/2000/svg" p-id="55995" xmlns:xlink="http://www.w3.org/1999/xlink" width="200" height="200"><defs><style type="text/css"></style></defs><path d="M901.888 799.936l-74.688-131.328v-274.56c0-57.28-20.8-117.632-58.56-169.984a336.192 336.192 0 0 0-151.872-117.312l-1.024-0.384c-1.408-0.448-6.4-2.112-13.888-4.16v-9.152C601.856 43.52 561.536 3.2 512 3.2S422.144 43.52 422.144 93.056v8.512c-6.976 1.92-11.392 3.328-11.84 3.52l-0.768 0.256a335.68 335.68 0 0 0-154.496 117.184c-38.464 52.736-59.648 113.6-59.648 171.52v274.624l-79.872 140.608a54.528 54.528 0 0 0 47.296 81.664H360.32A153.728 153.728 0 0 0 512 1020.864a153.6 153.6 0 0 0 151.616-129.92h197.504a54.656 54.656 0 0 0 40.768-91.008zM512 50.112c22.912 0 41.728 18.112 42.88 40.768a277.696 277.696 0 0 0-14.592-2.496 21.504 21.504 0 0 0-6.08-0.064l-2.624-0.384c-5.952-0.896-12.736-1.92-20.352-1.92-7.552 0-14.336 1.024-20.288 1.92a22.208 22.208 0 0 0-2.176 0.32 26.752 26.752 0 0 0-6.4 0c-4.416 0.64-8.896 1.344-13.184 2.176A42.88 42.88 0 0 1 512 50.112z m0 923.776a106.624 106.624 0 0 1-103.936-83.008h207.872A106.624 106.624 0 0 1 512 973.888z m349.12-129.984H162.816a7.616 7.616 0 0 1-6.592-3.648 7.68 7.68 0 0 1 0-7.744l83.008-146.112a23.936 23.936 0 0 0 3.072-11.584V394.048c0-101.504 78.528-206.528 182.784-244.48 3.392-1.024 30.336-9.472 57.536-13.888a21.12 21.12 0 0 0 4.928 0c3.648-0.384 7.04-0.896 10.368-1.344a90.88 90.88 0 0 1 13.312-1.408c4.032 0 8.384 0.64 13.376 1.408 3.328 0.448 6.72 0.96 10.304 1.344a26.176 26.176 0 0 0 4.48 0c28.224 4.736 56.96 13.696 61.312 15.104 102.464 38.784 179.52 143.296 179.52 243.264v280.768c0 4.032 1.152 8 3.136 11.584l79.104 139.328c1.152 1.92 2.496 3.712 4.032 5.248a7.168 7.168 0 0 1 2.24 5.376 7.488 7.488 0 0 1-7.616 7.552z" fill="#666666" p-id="55996"></path></svg>