<?xml version="1.0" standalone="no"?><!DOCTYPE svg PUBLIC "-//W3C//DTD SVG 1.1//EN" "http://www.w3.org/Graphics/SVG/1.1/DTD/svg11.dtd"><svg t="1542597600324" class="icon" style="" viewBox="0 0 1024 1024" version="1.1" xmlns="http://www.w3.org/2000/svg" p-id="14436" xmlns:xlink="http://www.w3.org/1999/xlink" width="200" height="200"><defs><style type="text/css"></style></defs><path d="M792.94441 759.685197c-77.55153 0-141.191755-64.759525-141.191755-143.750156 0-78.990631 63.480325-143.750156 141.191755-143.750157h228.657089V299.013117c0-49.089319-39.335415-89.064335-87.625234-89.064335H87.465334C39.335415 209.788882 0 249.923798 0 299.013117v634.003747c0 49.089319 39.335415 89.064335 87.625234 89.064335h846.510931c48.289819 0 87.625234-40.134916 87.625234-89.064335V759.685197H792.94441z m0 0" p-id="14437" fill="#0285E7"></path><path d="M729.783885 615.935041c0 26.54341 13.911305 51.16802 36.457214 64.439725 22.545909 13.271705 50.36852 13.271705 73.074329 0 22.545909-13.271705 36.457214-37.896315 36.457214-64.439725 0-26.54341-13.911305-51.16802-36.457214-64.439726-22.545909-13.271705-50.36852-13.271705-73.074329 0-22.545909 13.431605-36.457214 37.896315-36.457214 64.439726z m0 0M827.163023 167.895066l-95.460337-147.747658C718.910681 0.1599 692.36727-5.276702 672.699563 7.835103l-238.730793 159.900063h393.194253v0.1599z m0 0" p-id="14438" fill="#0285E7"></path></svg>
