<?xml version="1.0" standalone="no"?><!DOCTYPE svg PUBLIC "-//W3C//DTD SVG 1.1//EN" "http://www.w3.org/Graphics/SVG/1.1/DTD/svg11.dtd"><svg t="1542601687163" class="icon" style="" viewBox="0 0 1024 1024" version="1.1" xmlns="http://www.w3.org/2000/svg" p-id="25647" xmlns:xlink="http://www.w3.org/1999/xlink" width="200" height="200"><defs><style type="text/css"></style></defs><path d="M444.997 580.042c51.563 51.296 111.274 100.345 134.71 76.642 33.56-33.861 54.212-63.365 128.675-3.855 74.462 59.576 17.602 99.641-14.92 132.463-37.516 37.885-177.992 2.648-317.228-135.815C237.032 510.944 200.79 370.435 238.34 332.549c32.521-32.822 72.082-90.119 132.027-15.925 59.945 74.161 30.71 95.114-2.85 128.976C344.082 469.271 393.434 528.713 444.997 580.042L444.997 580.042zM519.795 335.231c0 0-15.557-2.414-26.452 8.516-11.231 11.231-11.701 30.576 0.101 42.445 6.974 7.007 16.83 8.482 16.83 8.482 19.211 3.587 48.144 9.723 78.921 40.567s36.88 59.845 40.467 79.089c0 0 1.509 9.891 8.482 16.864 11.801 11.834 31.146 11.332 42.344 0.134 10.896-10.93 8.482-26.553 8.482-26.553-6.102-38.958-24.944-79.659-57.297-112.08C599.286 360.242 558.686 341.367 519.795 335.231L519.795 335.231zM665.77 358.532c56.425 56.526 80.497 120.729 72.651 172.729 0 0-2.716 16.495 8.013 27.257 12.07 12.104 31.247 11.399 42.546 0.101 7.274-7.309 8.851-19.144 8.851-19.144 6.471-44.959-1.676-135.38-89.583-223.487-87.939-88.107-178.159-96.254-222.984-89.784 0 0-11.802 1.576-19.077 8.851-11.298 11.332-12.002 30.543 0.101 42.646 10.729 10.762 27.157 8.013 27.157 8.013C545.275 277.834 609.311 301.973 665.77 358.532L665.77 358.532z" p-id="25648" fill="#666666"></path></svg>