<?xml version="1.0" standalone="no"?><!DOCTYPE svg PUBLIC "-//W3C//DTD SVG 1.1//EN" "http://www.w3.org/Graphics/SVG/1.1/DTD/svg11.dtd"><svg t="1542597497017" class="icon" style="" viewBox="0 0 1024 1024" version="1.1" xmlns="http://www.w3.org/2000/svg" p-id="9578" xmlns:xlink="http://www.w3.org/1999/xlink" width="200" height="200"><defs><style type="text/css"></style></defs><path d="M477.882 379.563V178.509c0-42.229 8.899-107.226-28.026-110.884H86.741c-14.296 4.389-23.05 14.32-28.026 28.026v367.988c6.827 38.648 67.599 28.027 112.103 28.027h192.526c24.389 0 74.975 5.645 93.823-2.437 28.942-12.414 20.715-65.971 20.715-109.666z m-46.317 66.24H103.823V118.061c-0.127-2.162-0.25-4.317 1.527-4.574h326.215v332.316zM477.882 872.115V671.062c0-42.229 8.899-107.227-28.026-110.885H86.741c-14.296 4.391-23.05 14.32-28.026 28.027v367.988c6.827 38.646 67.599 28.027 112.103 28.027h192.526c24.389 0 74.975 5.645 93.823-2.438 28.942-12.412 20.715-65.968 20.715-109.666z m-46.317 66.24H103.823V610.613c-0.127-2.16-0.25-4.316 1.527-4.572h326.215v332.314zM964.036 379.563V178.509c0-42.229 8.9-107.226-28.023-110.884H572.896c-14.297 4.389-23.05 14.32-28.025 28.026v367.988c6.829 38.648 67.6 28.027 112.103 28.027h192.525c24.39 0 74.976 5.645 93.824-2.437 28.942-12.414 20.713-65.971 20.713-109.666z m-46.314 66.24H589.981V118.061c-0.131-2.162-0.253-4.317 1.524-4.574h326.217v332.316z" p-id="9579" fill="#0285E7"></path><path d="M256.113 227.25c36.486-6.887 65.18 17.766 65.8 51.176 0.816 44.059-44.183 68.262-79.204 49.959-40.064-20.94-37.429-91.545 13.404-101.135zM743.518 227.25c85.941-16.057 84.294 120.049 0 106.01-53.646-8.933-55.377-95.665 0-106.01zM965.285 595.236v102.357c-2.844 34.525-0.407 74.326-1.219 110.885H704.524v-59.709c-24.372-2.842-54.019-0.404-80.422-1.219-2.843 77.174-0.405 159.625-1.219 238.828h-47.522c-40.859-8.189-29.244-69.5-29.244-118.193V679.316c0-28.398-5.746-70.975 1.221-93.824 8.311-27.266 44.354-23.152 80.421-23.152h176.685v162.061h81.639c0.812-53.615-1.624-110.477 1.22-162.061 39.282-2.324 75.676-1.752 77.982 32.896zM262.206 720.746c38.958-4.314 71.165 33.129 56.051 74.328-20.948 57.105-121.111 35.641-102.355-36.555 5.185-19.956 20.161-34.88 46.304-37.773z" p-id="9580" fill="#0285E7"></path><path d="M792.257 986.379h-87.732c0.811-31.277-1.624-65.799 1.219-95.043h86.514l-0.001 95.043zM965.285 891.336v62.145c-3.387 17.326-13.52 27.91-29.244 32.898h-62.145c0.812-31.277-1.622-65.799 1.22-95.043h90.169z" p-id="9581" fill="#0285E7"></path></svg>
