<?xml version="1.0" standalone="no"?><!DOCTYPE svg PUBLIC "-//W3C//DTD SVG 1.1//EN" "http://www.w3.org/Graphics/SVG/1.1/DTD/svg11.dtd"><svg t="1542266790204" class="icon" style="" viewBox="0 0 1024 1024" version="1.1" xmlns="http://www.w3.org/2000/svg" p-id="89172" xmlns:xlink="http://www.w3.org/1999/xlink" width="200" height="200"><defs><style type="text/css"></style></defs><path d="M511.35614521 2.03876693c-281.07479723 0-508.93083193 227.8560347-508.93083193 508.93083193s227.8560347 508.93083193 508.93083193 508.93083193c281.07479723 0 508.93083193-227.8560347 508.93083193-508.93083193S792.43094243 2.03876693 511.35614521 2.03876693zM511.37011598 956.26937799c-245.56030521 0-445.3137499-199.75344469-445.3137499-445.29395712s199.75344469-445.3137499 445.3137499-445.3137499S956.68503097 265.43607239 956.68503097 510.97542087 756.93042119 956.26937799 511.37011598 956.26937799z" p-id="89173" fill="#0084e7"></path><path d="M511.35730915 754.66586795m-46.40414378 0a45.34727111 45.34727111 0 1 0 92.80828757 0 45.34727111 45.34727111 0 1 0-92.80828757 0Z" p-id="89174" fill="#0084e7"></path><path d="M511.35730915 214.09298887c-85.29043456 0-154.67892622 68.77025166-154.67892622 153.28642958 0 17.07671552 13.85976832 30.93531989 30.93648384 30.9353199s30.93531989-13.85860437 30.9353199-30.9353199c0-51.26041827 40.77361266-91.41578979 92.80712248-91.41578979 51.16843918 0 92.80712249 41.94838642 92.8071225 93.51850667 0 20.63363641-25.89275819 46.49728683-50.92044459 71.55524494-34.15343104 34.12199538-72.82316288 72.79172722-72.82316288 123.40246869l0 52.31294123c0 17.07671552 13.85860437 30.93531989 30.93531989 30.93531989 17.07671552 0 30.93531989-13.89004003 30.9353199-30.96675555l0-52.31294123c0-24.96481507 27.78008007-52.74605909 54.69508835-79.59819605 33.93687211-33.93687211 69.04851797-69.01824626 69.04851797-115.32924587C666.03623538 283.79118365 596.64657863 214.09298887 511.35730915 214.09298887z" p-id="89175" fill="#0084e7"></path></svg>
