<?xml version="1.0" standalone="no"?><!DOCTYPE svg PUBLIC "-//W3C//DTD SVG 1.1//EN" "http://www.w3.org/Graphics/SVG/1.1/DTD/svg11.dtd"><svg t="1542599903000" class="icon" style="" viewBox="0 0 1024 1024" version="1.1" xmlns="http://www.w3.org/2000/svg" p-id="46535" xmlns:xlink="http://www.w3.org/1999/xlink" width="200" height="200"><defs><style type="text/css"></style></defs><path d="M585.959967 904.320247l12.543687-12.532431c5.736655-5.709025 7.280824-16.292058 3.473101-23.435759l-10.1952-24.662703c-0.441045-1.436722-1.096984-2.823302-1.922792-4.130064-33.388435 29.15604-61.10673 46.592155-75.574233 52.465932C471.532845 875.976712 329.083505 774.195607 244.692467 561.381687c-40.741913-102.729709-51.186799-218.805378-52.766784-298.089096-0.154519-7.745405 5.034666-14.239306 10.269901-16.653285 145.619542-67.51058 280.077883-118.521371 312.598554-118.65747 32.663934 0.115634 166.549224 50.947346 311.397193 118.244055 3.66139 1.910513 10.205433 11.884678 10.107195 16.389272-1.627057 79.83835-12.155854 196.49014-52.855812 298.81155l-0.00614-0.004093c-7.556093 18.98847-15.669888 37.146015-24.203238 54.485939 1.285273 2.185782 2.037403 4.713348 2.037403 7.410783l0 17.711384c0 8.090259 6.341429 16.71673 14.063297 19.105127l21.253046 8.758478c14.56574-27.220968 28.224832-56.265468 40.511669-87.149872 45.5228-114.379027 57.244772-243.456824 59.060117-331.61056 0.429789-21.383006-16.095583-47.971571-35.352159-56.912198l-0.00614 0.007163c-103.173824-47.930639-292.569382-129.099287-348.026438-129.290645-55.332213 0.211824-245.550509 81.626066-349.223706 129.707131-21.759583 10.082636-36.07666 33.081443-35.597753 57.198723 1.750877 87.551008 13.378705 216.007659 58.915831 330.823638C285.54285 830.487681 458.680119 947.196777 507.233951 959.448822c1.708921 0.416486 3.459798 0.629333 5.204535 0.629333 1.832741 0 3.673669-0.212848 5.439896-0.714268 14.959713-3.949962 38.271652-16.232706 66.155722-36.606733C580.361459 917.074735 581.000002 909.325237 585.959967 904.320247z" p-id="46536" fill="#666666"></path><path d="M512.053724 512.008186" p-id="46537" fill="#666666"></path><path d="M291.261085 466.724841l447.724091 0 0 63.960731-447.724091 0 0-63.960731Z" p-id="46538" fill="#666666"></path><path d="M483.143277 274.842649l63.960731 0 0 447.724091-63.960731 0 0-447.724091Z" p-id="46539" fill="#666666"></path><path d="M893.100206 786.997168c0-2.750647-1.011027-5.613858-3.145643-7.691169-2.078335-2.134617-4.945639-3.2623-7.696286-3.2623l-16.516162 0c-6.852058 0-14.20963-5.336542-16.231683-11.849886l-8.591679-20.950148c-3.257184-6.068206-1.967818-15.055904 2.921539-19.828604l11.848862-11.797697c1.911536-2.018983 3.145643-4.7727 3.145643-7.746428 0-3.034103-1.177825-5.785773-3.145643-7.696286l-20.051685-19.884886c-1.966795-1.966795-4.605901-3.199878-7.696286-3.199878-2.973728 0-5.674233 1.176802-7.636934 3.199878l-11.852956 11.738345c-4.885264 4.833075-13.815657 6.233981-19.828604 2.866281l-20.951171-8.53642c-6.513344-2.023076-11.964496-9.268084-11.964496-16.232706l0-16.515139c0-2.864234-1.067308-5.617951-3.200902-7.696286-2.078335-2.134617-4.885264-3.199878-7.636934-3.199878l-28.252461 0c-2.811022 0-5.617951 1.065262-7.696286 3.199878-2.078335 2.078335-3.257184 4.833075-3.257184 7.696286l0 16.570397c0 6.963599-5.335519 14.210653-11.964496 16.232706l-20.784372 8.53642c-6.007831 3.428076-14.993482 1.966795-19.767206-2.862187l-11.909238-11.742439c-1.911536-1.966795-4.606925-3.201925-7.641027-3.201925-2.973728 0-5.730515 1.178849-7.752568 3.201925l-19.939121 19.884886c-1.906419 1.910513-3.200902 4.66116-3.200902 7.695263 0 2.973728 1.238201 5.730515 3.200902 7.752568l11.852956 11.793604c4.830005 4.7727 6.123464 13.70514 2.922563 19.828604l-8.595772 20.950148c-2.078335 6.513344-9.325389 11.965519-16.177448 11.965519l-16.678868-0.11154c-2.755764 0-5.507434 1.12359-7.641027 3.25616-2.134617 2.078335-3.257184 4.942569-3.257184 7.693216l0 28.252461c0 2.812045 1.122567 5.562692 3.257184 7.696286 2.133593 2.190899 4.88424 3.258207 7.641027 3.258207l16.678868 0c6.851035 0 14.098089 5.278213 16.121166 11.908214l8.652054 20.839631c3.257184 6.119371 1.906419 15.110139-2.922563 19.884886l-11.852956 11.738345c-1.906419 2.023076-3.200902 4.7727-3.200902 7.750521 0 3.034103 1.238201 5.730515 3.200902 7.752568l19.939121 19.884886c2.023076 1.906419 4.77884 3.143597 7.752568 3.143597 3.034103 0 5.78475-1.180895 7.641027-3.143597l11.848862-11.853979c4.834098-4.774747 13.763468-6.123464 19.827581-2.862187l20.895913 8.591679c6.630001 2.023076 11.964496 9.323343 11.964496 16.177448l0 16.566304c0 2.921539 1.177825 5.674233 3.257184 7.80885 2.077312 2.076288 4.889357 3.143597 7.696286 3.143597l28.253484 0c2.750647 0 5.558599-1.067308 7.635911-3.143597 2.13871-2.134617 3.206018-4.886287 3.206018-7.80885l0-16.566304c0-6.853082 5.446036-14.154371 11.960403-16.177448l20.952194-8.591679c6.068206-3.317559 14.94334-1.912559 19.827581 2.862187l11.797697 11.853979c2.023076 1.906419 4.662183 3.25616 7.692193 3.25616 2.978844 0 5.730515-1.176802 7.696286-3.25616l20.051685-19.884886c1.910513-2.023076 3.14462-4.718465 3.14462-7.752568 0-2.977821-1.177825-5.728468-3.14462-7.750521l-11.848862-11.738345c-4.889357-4.831029-6.123464-13.764492-2.922563-19.884886l8.595772-20.839631c2.018983-6.630001 9.376555-11.908214 16.232706-11.908214l16.567327 0c2.750647 0 5.616928-1.067308 7.696286-3.258207 2.134617-2.134617 3.145643-4.88424 3.145643-7.696286L893.268028 786.997168 893.100206 786.997168 893.100206 786.997168zM793.229614 801.095257c0 34.544771-27.91477 62.403259-62.402235 62.403259-34.488489 0-62.458517-27.859511-62.458517-62.403259 0-34.488489 27.913746-62.457494 62.402235-62.457494S793.229614 766.606769 793.229614 801.095257" p-id="46540" fill="#666666"></path></svg>