<?xml version="1.0" standalone="no"?><!DOCTYPE svg PUBLIC "-//W3C//DTD SVG 1.1//EN" "http://www.w3.org/Graphics/SVG/1.1/DTD/svg11.dtd"><svg t="1542590536177" class="icon" style="" viewBox="0 0 1025 1024" version="1.1" xmlns="http://www.w3.org/2000/svg" p-id="4570" xmlns:xlink="http://www.w3.org/1999/xlink" width="200.1953125" height="200"><defs><style type="text/css"></style></defs><path d="M384.750023 937.63262l-204.771497 0c-51.617923 0-93.610113-41.994143-93.610113-93.610174L86.368413 639.251011l-52.655277 0 0 204.771435c0 80.77979 65.483647 146.265329 146.26539 146.265329l204.771497 0L384.750023 937.63262 384.750023 937.63262z" p-id="4571" fill="#0285E7"></path><path d="M937.631648 639.251011l0 204.771435c0 51.616031-41.99219 93.610174-93.610113 93.610174l-204.771497 0 0 52.655155 204.771497 0c80.781499 0 146.26539-65.485539 146.26539-146.265329L990.286924 639.251011 937.631648 639.251011 937.631648 639.251011z" p-id="4572" fill="#0285E7"></path><path d="M844.021535 33.712237l-204.771497 0 0 52.655208 204.771497 0c51.617923 0 93.610113 41.993964 93.610113 93.610082l0 204.77142 52.655277 0L990.286924 179.977531C990.286924 99.197756 924.803034 33.712237 844.021535 33.712237L844.021535 33.712237z" p-id="4573" fill="#0285E7"></path><path d="M384.750023 33.712237l-204.771497 0c-80.781743 0-146.26539 65.485523-146.26539 146.265298l0 204.77142 52.655277 0L86.368413 179.977531c0-51.616122 41.99219-93.610082 93.610113-93.610082l204.771497 0L384.750023 33.712237 384.750023 33.712237z" p-id="4574" fill="#0285E7"></path><path d="M997.673155 538.327573l-971.346493 0c-14.540772 0-26.326662-11.787629-26.326662-26.326723l0-0.001679c0-14.539063 11.785889-26.326753 26.326662-26.326753l971.346493 0c14.541016 0 26.326662 11.78769 26.326662 26.326753l0 0.001679C1023.999817 526.539945 1012.214172 538.327573 997.673155 538.327573L997.673155 538.327573z" p-id="4575" fill="#0285E7"></path></svg>
