<?xml version="1.0" standalone="no"?><!DOCTYPE svg PUBLIC "-//W3C//DTD SVG 1.1//EN" "http://www.w3.org/Graphics/SVG/1.1/DTD/svg11.dtd"><svg t="1542599954526" class="icon" style="" viewBox="0 0 1024 1024" version="1.1" xmlns="http://www.w3.org/2000/svg" p-id="47251" xmlns:xlink="http://www.w3.org/1999/xlink" width="200" height="200"><defs><style type="text/css"></style></defs><path d="M480 576a32 32 0 1 0 0-64 32 32 0 0 0 0 64z m-320 128h448a32 32 0 0 0 0-64h-448a32 32 0 0 0 0 64zM896 128H128a128 128 0 0 0-128 128v512a128 128 0 0 0 128 128h768a128 128 0 0 0 128-128V256a128 128 0 0 0-128-128z m64 640a64 64 0 0 1-64 64H128a64 64 0 0 1-64-64V384h896v384z m0-448H64V256a64 64 0 0 1 64-64h768a64 64 0 0 1 64 64v64zM160 576h192a32 32 0 0 0 0-64h-192a32 32 0 0 0 0 64z" p-id="47252" fill="#666666"></path></svg>