<?xml version="1.0" standalone="no"?><!DOCTYPE svg PUBLIC "-//W3C//DTD SVG 1.1//EN" "http://www.w3.org/Graphics/SVG/1.1/DTD/svg11.dtd"><svg t="1542601719135" class="icon" style="" viewBox="0 0 1055 1024" version="1.1" xmlns="http://www.w3.org/2000/svg" p-id="7427" xmlns:xlink="http://www.w3.org/1999/xlink" width="206.0546875" height="200"><defs><style type="text/css"></style></defs><path d="M1053.04059 387.599532a48.569244 48.569244 0 0 0-39.767394-33.828796L708.814029 308.594977 572.650472 27.890199a48.569244 48.569244 0 0 0-87.806406 0L347.407953 308.594977 42.418553 353.770736a50.478079 50.478079 0 0 0-39.87344 33.828796 49.417615 49.417615 0 0 0 12.513473 51.008311L235.741111 657.487579 183.460244 966.082555a49.311568 49.311568 0 0 0 19.618581 48.675291A47.932965 47.932965 0 0 0 254.511321 1018.045283l273.281531-146.131916L800.86229 1018.045283a51.538542 51.538542 0 0 0 23.118111 5.938598 48.67529 48.67529 0 0 0 29.056709-9.544175 50.159939 50.159939 0 0 0 19.618581-48.67529L820.374824 657.487579l220.258339-218.243458a50.478079 50.478079 0 0 0 12.513473-51.644589z" fill="#ffcc00" p-id="7428"></path></svg>